<?xml version="1.0" standalone="no"?>
<!DOCTYPE svg PUBLIC "-//W3C//DTD SVG 20010904//EN"
 "http://www.w3.org/TR/2001/REC-SVG-20010904/DTD/svg10.dtd">
<svg version="1.0" xmlns="http://www.w3.org/2000/svg"
 width="1299.000000pt" height="1299.000000pt" viewBox="0 0 1299.000000 1299.000000"
 preserveAspectRatio="xMidYMid meet">
<metadata>
Created by potrace 1.14, written by Peter Selinger 2001-2017
</metadata>
<g transform="translate(0.000000,1299.000000) scale(0.100000,-0.100000)"
fill="#000000" stroke="none">
<path d="M6248 12875 c-2 -2 -57 -6 -123 -10 -66 -3 -133 -8 -150 -10 -73 -7
-163 -17 -200 -22 -22 -3 -53 -6 -70 -8 -33 -3 -103 -13 -150 -21 -16 -3 -43
-8 -60 -10 -16 -3 -39 -7 -50 -8 -11 -2 -38 -7 -60 -11 -33 -5 -181 -36 -245
-50 -8 -1 -67 -16 -130 -31 -63 -15 -117 -29 -120 -29 -158 -38 -626 -195
-780 -263 -25 -10 -65 -28 -90 -39 -25 -11 -65 -28 -90 -38 -69 -30 -427 -210
-495 -250 -33 -19 -73 -42 -90 -50 -16 -9 -43 -24 -60 -35 -16 -11 -41 -25
-55 -32 -14 -7 -27 -15 -30 -18 -3 -3 -48 -32 -100 -65 -92 -57 -291 -193
-318 -216 -7 -6 -57 -44 -110 -83 -53 -40 -104 -79 -112 -87 -8 -8 -31 -26
-52 -41 -20 -15 -42 -33 -50 -40 -7 -7 -60 -53 -117 -103 -117 -100 -121 -104
-281 -260 -103 -101 -263 -269 -320 -335 -11 -14 -41 -48 -65 -76 -24 -28 -66
-78 -92 -110 -26 -33 -51 -60 -55 -62 -4 -2 -8 -10 -8 -17 0 -7 -4 -15 -8 -17
-5 -1 -39 -43 -76 -93 -37 -49 -73 -98 -81 -107 -37 -45 -305 -453 -305 -464
0 -3 -11 -22 -24 -43 -92 -145 -275 -508 -366 -726 -34 -82 -67 -159 -71 -170
-14 -33 -80 -209 -84 -225 -2 -8 -15 -49 -30 -90 -41 -117 -136 -452 -130
-458 2 -3 1 -10 -4 -16 -5 -6 -12 -28 -15 -50 -4 -21 -8 -41 -11 -45 -4 -7 -8
-26 -20 -86 -3 -16 -14 -70 -25 -120 -10 -49 -21 -108 -25 -130 -60 -388 -72
-497 -90 -815 -5 -77 -5 -521 0 -602 9 -166 37 -483 49 -558 3 -14 10 -61 16
-105 6 -44 15 -102 20 -130 5 -27 12 -67 15 -89 3 -21 7 -41 9 -45 3 -3 7 -25
10 -47 7 -44 8 -49 30 -149 8 -38 20 -85 25 -102 5 -18 8 -33 6 -33 -2 0 2
-18 10 -40 8 -22 12 -40 8 -40 -3 0 0 -7 7 -15 7 -8 10 -15 7 -15 -5 0 16 -83
30 -120 3 -8 7 -22 8 -30 7 -36 14 -60 25 -79 6 -12 8 -21 4 -21 -3 0 -2 -6 4
-13 11 -13 12 -16 12 -48 0 -12 4 -17 11 -13 8 4 9 0 4 -15 -4 -13 -2 -21 5
-21 6 0 8 -5 5 -11 -4 -5 1 -27 11 -47 10 -20 19 -41 19 -47 1 -5 3 -16 3 -23
1 -8 7 -10 15 -6 7 5 6 0 -3 -11 -12 -15 -12 -17 -1 -10 11 6 13 4 8 -8 -3
-10 -2 -17 4 -17 6 0 7 -4 4 -10 -3 -5 0 -10 7 -10 9 0 9 -3 -2 -10 -8 -5 -10
-10 -5 -10 6 0 16 -9 23 -21 9 -14 10 -19 2 -14 -9 6 -9 2 -1 -12 6 -11 7 -23
3 -27 -3 -4 1 -4 9 -1 10 4 16 0 16 -9 0 -8 -5 -12 -11 -9 -7 4 -6 1 1 -8 6
-8 11 -18 11 -22 0 -5 4 -12 8 -15 4 -4 4 -1 -1 7 -6 10 -4 12 4 7 7 -5 10
-10 7 -13 -3 -3 1 -15 9 -27 8 -11 15 -25 15 -31 -1 -5 -7 1 -15 15 -8 14 -14
20 -15 13 0 -6 12 -26 28 -44 15 -18 21 -30 14 -25 -6 4 -12 2 -12 -3 0 -6 4
-11 10 -11 5 0 14 -10 21 -21 8 -15 8 -19 0 -15 -17 11 -13 -4 7 -22 10 -10
12 -13 5 -8 -10 6 -12 4 -7 -8 3 -9 10 -16 14 -16 4 0 11 -7 14 -16 4 -9 2
-13 -5 -8 -8 4 -7 0 0 -15 7 -11 14 -21 17 -21 3 0 2 6 -2 12 -4 7 -3 9 2 5 4
-4 9 -18 9 -30 0 -14 5 -21 15 -19 12 3 12 1 3 -9 -15 -15 14 -79 36 -80 13 0
13 -2 2 -6 -10 -4 -8 -9 10 -20 13 -8 16 -12 7 -9 -10 3 -18 1 -18 -4 0 -6 5
-10 11 -10 6 0 8 -7 5 -16 -6 -15 -4 -15 11 -3 15 12 16 12 10 -3 -3 -9 1 -22
9 -29 8 -7 20 -22 25 -33 8 -16 6 -15 -10 4 -11 14 -21 20 -21 14 0 -5 9 -20
21 -32 11 -12 17 -26 14 -31 -3 -5 -1 -12 5 -16 6 -4 7 -11 4 -17 -5 -7 -1 -9
9 -5 21 8 40 -16 25 -31 -9 -9 -8 -12 6 -12 15 0 16 -3 7 -14 -9 -11 -8 -15 4
-20 11 -4 14 -2 9 6 -5 7 -3 8 5 3 9 -5 9 -11 3 -17 -14 -14 7 -60 24 -54 7 3
10 -2 7 -13 -3 -12 5 -26 23 -40 35 -28 54 -64 43 -84 -6 -10 -4 -17 7 -21 12
-4 15 -2 10 9 -9 23 0 18 20 -12 14 -22 14 -25 2 -15 -11 9 -18 10 -23 2 -3
-5 -1 -10 5 -10 6 0 8 -4 5 -10 -3 -5 0 -7 8 -5 19 8 53 -30 36 -41 -7 -4 -10
-3 -7 2 3 5 -1 16 -10 24 -14 13 -15 12 -8 -5 13 -36 70 -125 80 -125 5 0 1 9
-9 20 -16 18 -16 20 -2 20 10 0 16 -3 15 -7 -2 -5 12 -30 31 -56 18 -27 30
-51 27 -54 -3 -4 -6 -1 -6 6 0 7 -5 9 -10 6 -6 -4 -4 -12 5 -21 8 -9 15 -20
15 -25 0 -5 5 -9 11 -9 8 0 8 4 0 14 -9 11 -9 16 0 22 8 4 9 3 5 -4 -4 -7 -3
-12 2 -12 17 0 23 -32 10 -48 -10 -12 -10 -14 0 -8 7 4 12 1 12 -9 0 -12 6
-15 23 -10 16 5 18 4 8 -4 -13 -8 -12 -14 3 -44 14 -26 25 -33 42 -31 13 1 22
-2 18 -7 -3 -5 -10 -7 -15 -4 -5 4 -9 -1 -9 -9 0 -19 20 -31 43 -28 9 2 17 -1
17 -6 0 -5 9 -19 20 -32 11 -12 17 -26 15 -30 -3 -4 2 -11 11 -14 9 -3 12 -11
8 -18 -5 -8 -2 -9 10 -5 9 4 15 3 11 -2 -3 -5 1 -11 7 -14 10 -3 10 -8 -2 -22
-14 -16 -13 -17 7 -11 17 5 27 -1 48 -29 21 -27 25 -38 16 -49 -8 -10 -6 -19
11 -39 13 -14 34 -40 48 -57 14 -18 32 -40 41 -50 9 -9 18 -23 21 -31 3 -9 6
-8 11 4 3 9 2 17 -4 17 -6 0 -8 4 -4 9 3 5 1 12 -5 16 -5 3 -10 0 -10 -7 0
-10 -3 -9 -9 2 -20 30 3 31 31 1 16 -17 28 -33 28 -36 0 -3 17 -21 37 -40 21
-20 38 -40 38 -45 0 -6 5 -11 10 -11 13 -2 39 -39 32 -46 -9 -8 -28 7 -22 18
4 5 2 9 -4 9 -20 0 -20 -17 0 -34 15 -12 24 -14 33 -6 16 13 39 -11 42 -43 2
-12 0 -16 -2 -9 -3 6 -10 10 -15 6 -9 -5 -13 9 -10 35 2 7 -2 10 -8 6 -18 -10
-13 -33 11 -49 12 -9 27 -26 34 -38 11 -21 12 -21 12 5 0 15 -4 24 -9 21 -5
-3 -6 2 -2 12 5 14 7 14 18 -5 6 -12 15 -18 20 -14 4 4 5 2 1 -5 -4 -7 -1 -15
8 -18 8 -3 18 -15 22 -26 5 -16 8 -18 15 -7 6 10 8 7 6 -9 -1 -22 -17 -32 -17
-11 0 5 -4 8 -9 5 -10 -7 63 -86 79 -86 6 0 8 -5 4 -12 -4 -7 -3 -8 4 -4 8 4
12 0 12 -10 0 -15 2 -16 13 -5 10 10 7 16 -12 32 -12 10 -27 16 -32 13 -5 -3
-8 -1 -7 5 2 5 -6 17 -17 25 l-20 16 20 -7 c18 -6 18 -5 6 10 -9 11 -10 17 -2
17 6 0 11 -3 11 -7 0 -5 16 -26 36 -47 19 -22 33 -45 30 -53 -8 -19 4 -43 21
-43 8 0 11 -5 7 -12 -4 -6 -3 -8 3 -5 6 4 13 -3 16 -15 4 -12 9 -19 13 -15 4
4 13 -1 20 -11 11 -14 15 -15 26 -3 11 12 10 13 -5 8 -10 -4 -16 -3 -12 2 3 5
-1 11 -7 14 -7 2 -10 8 -6 12 4 4 14 0 23 -9 9 -9 19 -16 23 -16 17 0 92 -81
86 -92 -5 -8 -2 -9 9 -5 11 4 22 -2 33 -18 9 -14 20 -22 25 -19 5 3 8 0 7 -8
-2 -7 3 -12 10 -10 6 1 11 -4 10 -10 -2 -7 2 -12 7 -11 6 1 22 -7 35 -18 l25
-20 -25 12 c-14 7 -31 12 -37 11 -7 -2 -13 2 -13 9 0 6 -7 9 -14 6 -10 -4 -13
-1 -9 9 3 7 0 14 -5 14 -6 0 -13 8 -16 18 -4 10 -13 19 -21 20 -8 1 -22 3 -30
4 -8 1 -13 4 -11 7 6 10 -21 30 -30 23 -5 -4 -2 2 6 12 13 18 13 19 0 14 -9
-3 -24 0 -35 8 -10 8 -14 14 -9 14 6 0 15 -5 22 -12 8 -8 12 -8 12 -1 0 6 -7
16 -16 23 -12 11 -18 10 -32 -3 -9 -10 -11 -17 -5 -17 6 0 29 -18 51 -40 21
-22 44 -40 51 -40 7 0 9 -5 5 -12 -5 -8 -2 -9 9 -5 15 6 18 2 16 -19 -1 -12
54 -47 77 -50 14 -1 31 -7 38 -13 7 -6 16 -8 19 -4 4 3 7 1 7 -5 0 -7 3 -11 8
-11 22 4 31 -3 25 -18 -4 -9 -2 -14 3 -11 13 9 39 -14 40 -35 2 -25 -14 -21
-18 6 -2 12 -9 23 -15 23 -7 1 -17 2 -23 3 -5 0 -6 9 -3 19 6 15 5 16 -12 2
-15 -12 -17 -12 -10 -1 6 11 4 13 -9 8 -10 -4 -21 -7 -24 -7 -4 0 9 -9 28 -19
19 -11 34 -25 32 -32 -2 -9 1 -9 13 1 9 7 15 9 14 4 -3 -20 2 -34 12 -34 7 0
20 -9 29 -20 10 -12 21 -17 24 -11 4 5 -4 17 -16 25 -12 9 -18 16 -12 16 5 0
16 -6 23 -12 12 -11 13 -10 7 6 -5 14 2 12 28 -10 19 -16 35 -35 35 -43 1 -8
7 -11 17 -7 8 3 12 2 9 -4 -3 -6 1 -13 9 -16 9 -3 16 -11 16 -16 0 -6 -6 -6
-14 1 -8 7 -16 8 -18 4 -3 -4 -3 -2 -1 6 2 8 -2 11 -12 7 -11 -4 -14 -2 -9 6
4 7 3 8 -4 4 -7 -4 -10 -2 -9 6 2 7 2 9 -1 5 -2 -4 -10 0 -17 10 -7 10 -17 15
-20 11 -12 -11 65 -78 82 -71 9 4 13 0 11 -10 -2 -9 1 -15 7 -14 5 1 10 10 10
19 1 10 5 21 10 25 4 5 4 -2 1 -14 -5 -14 -3 -23 3 -23 6 0 11 5 11 10 0 6 5
10 11 10 5 0 8 -4 5 -9 -3 -5 1 -14 9 -21 10 -9 15 -9 15 -1 0 6 8 3 18 -7 39
-37 77 -67 86 -67 5 0 11 -6 13 -12 6 -17 -9 -17 -26 -1 -11 11 -13 10 -8 -4
4 -13 2 -16 -11 -11 -9 3 -6 -3 8 -13 14 -10 27 -17 29 -15 2 1 7 -1 10 -6 17
-25 80 -63 86 -53 4 6 4 14 1 17 -3 4 -6 0 -6 -8 0 -11 -2 -11 -10 1 -5 8 -14
15 -20 15 -5 0 -10 5 -11 10 0 13 -41 35 -51 29 -5 -3 -8 0 -8 6 0 7 8 9 20 5
16 -5 19 -3 13 12 -6 15 -5 16 9 3 11 -11 13 -17 4 -23 -7 -5 -3 -7 10 -4 12
2 26 2 30 -2 17 -12 34 -50 28 -65 -3 -9 4 -19 18 -27 12 -7 29 -18 36 -26 7
-7 20 -13 28 -13 9 0 12 -5 8 -12 -4 -7 -3 -8 4 -4 7 4 12 2 12 -5 0 -7 3 -10
6 -7 12 13 -16 47 -33 41 -12 -5 -14 -3 -8 7 5 8 4 11 -3 6 -6 -3 -13 -2 -17
3 -3 6 6 8 21 5 25 -5 26 -3 13 13 -12 14 -9 14 13 -2 16 -12 25 -26 22 -36
-3 -12 2 -16 23 -15 22 1 28 -4 29 -21 1 -19 -2 -21 -17 -12 -11 5 -19 15 -19
21 0 6 -2 9 -5 6 -9 -9 7 -38 21 -38 8 0 14 -5 14 -12 0 -6 3 -8 6 -5 4 3 18
-2 32 -13 13 -11 28 -17 33 -14 5 3 9 -2 9 -10 0 -9 5 -16 11 -16 5 0 7 6 3
13 -4 6 6 -3 23 -20 17 -18 38 -33 46 -33 8 0 20 -7 27 -15 7 -8 16 -12 21 -9
5 3 12 -2 15 -10 3 -9 15 -16 25 -16 10 0 19 -4 19 -10 0 -5 11 -12 25 -16 14
-3 25 -10 25 -16 0 -5 5 -6 10 -3 6 3 10 0 10 -7 0 -9 3 -9 10 2 8 12 10 12
11 -5 l0 -20 9 20 c5 11 9 23 9 28 1 9 -22 5 -30 -6 -3 -4 -17 4 -32 19 -14
14 -31 23 -37 19 -5 -3 -10 -2 -10 4 0 6 -7 8 -15 5 -14 -6 -20 6 -16 30 1 5
-5 6 -13 3 -16 -6 -76 13 -76 25 0 4 5 10 10 13 8 5 7 12 -2 22 -12 15 -11 15
10 2 12 -8 22 -17 22 -22 0 -4 -4 -6 -9 -2 -5 3 -12 1 -15 -4 -3 -5 1 -12 10
-15 22 -9 24 -8 25 12 0 10 3 12 6 4 2 -6 10 -9 15 -6 7 5 8 2 3 -6 -6 -10 -4
-12 8 -7 16 6 32 -8 32 -28 0 -5 9 -11 20 -13 16 -3 17 -1 5 7 -19 13 0 14 20
1 11 -7 11 -10 2 -10 -7 0 -11 -4 -7 -10 3 -5 12 -7 19 -4 7 3 21 -2 30 -11 9
-9 16 -13 16 -9 0 3 6 1 13 -5 8 -6 16 -9 19 -6 2 3 4 -8 4 -25 0 -16 -3 -27
-7 -24 -5 2 -6 11 -2 19 3 8 0 15 -6 15 -6 0 -11 -8 -11 -18 0 -13 15 -26 42
-38 23 -10 57 -29 75 -41 25 -17 30 -18 26 -6 -4 11 -2 14 5 9 7 -4 12 -2 12
4 0 6 -8 9 -17 6 -10 -3 -29 2 -43 10 -23 14 -13 13 23 -1 8 -4 14 1 14 10 0
9 -6 14 -13 11 -8 -3 -16 -1 -19 5 -4 5 -11 7 -16 4 -5 -4 -9 -1 -9 5 0 6 -5
8 -10 5 -6 -4 -7 -12 -3 -18 5 -8 2 -8 -9 1 -8 7 -16 24 -15 38 l0 25 19 -21
c10 -11 23 -18 29 -15 5 4 9 1 9 -6 0 -7 3 -9 6 -6 4 3 16 1 28 -5 11 -7 24
-11 27 -11 4 1 15 -7 25 -18 13 -15 15 -22 6 -31 -19 -19 -14 -32 14 -45 18
-8 32 -9 43 -3 11 6 12 9 3 10 -9 0 -11 7 -7 19 4 14 1 18 -11 17 -9 0 -19 6
-21 14 -4 12 -3 13 5 1 5 -7 15 -10 21 -7 6 4 14 0 17 -9 4 -9 13 -14 20 -11
8 3 19 -4 25 -16 9 -17 13 -18 21 -7 8 11 9 11 5 -2 -8 -24 6 -40 23 -29 10 7
11 10 3 10 -7 0 -13 6 -13 13 1 6 10 1 20 -12 11 -13 20 -18 20 -12 0 7 5 9
11 5 16 -10 -9 -23 -32 -17 -12 3 -19 0 -19 -8 -1 -8 -8 -2 -16 14 -17 32 -23
34 -21 7 1 -16 14 -29 37 -35 3 0 19 -9 37 -18 20 -10 34 -13 38 -7 6 9 -8 14
-27 11 -16 -2 -7 15 13 27 12 8 18 9 14 3 -3 -6 1 -11 10 -11 10 0 13 5 9 12
-4 7 -3 8 5 4 6 -4 9 -11 6 -16 -3 -5 9 -15 26 -24 29 -14 30 -14 25 2 -5 15
-4 15 8 -1 10 -13 16 -15 21 -6 6 8 10 7 17 -5 5 -9 7 -20 4 -25 -3 -5 1 -12
10 -15 12 -5 14 -1 10 17 -3 12 -3 17 0 10 3 -7 11 -11 17 -9 7 1 9 1 5 -1 -4
-3 -1 -12 8 -21 15 -14 15 -17 -2 -29 -16 -11 -16 -13 -2 -13 9 0 20 5 23 10
4 6 16 8 28 4 19 -6 20 -5 8 9 -7 9 -17 15 -21 12 -4 -3 -11 2 -14 10 -5 13
-2 14 17 3 12 -7 26 -11 31 -10 5 2 17 -5 28 -15 11 -10 27 -18 36 -18 10 0
17 -8 17 -17 0 -21 15 -36 16 -17 1 8 1 18 0 23 -1 5 4 4 12 -2 8 -7 17 -10
21 -7 3 3 2 -1 -4 -7 -16 -19 -12 -32 5 -18 8 7 15 9 15 4 0 -5 4 -3 8 4 6 9
13 7 30 -8 23 -22 37 -26 26 -8 -4 7 -3 8 5 4 6 -4 8 -12 5 -18 -4 -6 1 -8 15
-3 13 4 21 2 21 -6 0 -8 5 -8 18 2 15 13 16 12 4 -3 -8 -9 -9 -19 -4 -22 6 -3
13 1 16 9 5 14 8 14 29 0 13 -8 27 -12 31 -8 4 4 4 -1 0 -12 -7 -18 -6 -18 9
-6 11 9 17 10 17 2 0 -6 -4 -11 -10 -11 -19 0 -10 -16 9 -17 14 -1 19 4 16 17
-3 13 1 17 12 13 11 -4 11 -8 3 -13 -8 -5 -9 -10 -2 -14 6 -3 13 -2 17 4 3 5
12 10 18 10 8 0 8 -3 2 -8 -14 -10 -15 -64 -1 -59 6 2 10 14 10 25 -1 12 3 22
8 22 5 0 6 5 2 11 -3 6 5 4 18 -5 14 -9 28 -13 31 -9 4 3 7 1 7 -6 0 -7 4 -9
10 -6 6 4 7 -1 3 -12 -5 -15 -3 -16 8 -5 16 15 40 16 37 1 -2 -6 3 -14 10 -16
8 -3 10 1 5 14 -7 17 -6 17 11 0 10 -9 22 -15 27 -12 5 4 9 1 9 -4 0 -6 5 -11
11 -11 5 0 7 5 3 11 -4 8 0 7 15 -1 12 -6 19 -15 16 -19 -3 -5 2 -12 11 -15
24 -9 28 -7 14 9 -9 10 -9 15 -1 15 6 0 11 -4 11 -9 0 -6 9 -8 20 -6 11 2 20
0 20 -5 0 -5 9 -7 20 -5 11 2 20 0 20 -5 0 -4 11 -7 25 -5 14 1 28 -2 32 -8 3
-6 1 -7 -5 -3 -5 3 -13 0 -15 -6 -4 -9 -8 -10 -14 -3 -7 10 -16 11 -40 6 -5
-1 -2 -5 6 -10 19 -12 72 -5 83 11 5 9 8 10 8 1 0 -6 9 -10 19 -8 15 3 18 0
14 -13 -6 -15 -5 -16 12 -2 11 9 16 10 11 3 -9 -17 6 -17 23 0 11 9 12 9 7 0
-5 -9 2 -12 24 -9 17 2 33 0 36 -5 2 -4 12 -6 22 -3 9 3 6 -1 -6 -9 l-24 -14
31 0 c16 0 28 4 25 8 -2 4 0 10 5 13 5 4 12 2 15 -3 4 -5 2 -12 -4 -16 -5 -3
-10 -11 -10 -17 0 -6 10 -3 22 8 12 10 18 13 14 7 -4 -7 -3 -13 1 -13 5 0 15
6 22 13 10 8 12 8 7 0 -4 -8 3 -11 21 -11 50 1 55 -1 48 -22 -4 -11 -3 -20 2
-19 4 1 16 1 26 0 21 -1 23 -18 2 -18 -8 0 -15 3 -15 7 0 4 -7 7 -15 7 -8 0
-15 -4 -15 -8 0 -10 21 -17 50 -15 19 1 25 7 27 29 2 24 -1 26 -12 17 -16 -13
-35 -5 -34 13 0 9 2 9 6 0 2 -7 9 -13 14 -13 6 0 8 4 5 9 -5 8 15 8 34 1 3 -1
9 -2 13 -1 5 1 5 -3 2 -9 -9 -14 27 -9 37 5 5 6 8 6 8 -2 0 -6 -4 -15 -10 -18
-6 -3 -10 -12 -10 -18 1 -7 9 -2 19 10 19 22 38 32 27 14 -3 -5 2 -15 11 -22
14 -12 15 -11 9 11 -4 14 -4 20 1 14 4 -7 21 -10 36 -9 23 3 26 1 16 -11 -7
-9 -8 -14 -1 -14 6 0 14 4 17 10 7 11 55 9 55 -2 0 -4 5 -8 11 -8 5 0 7 6 3
13 -6 9 -4 9 7 1 8 -6 22 -10 31 -9 9 2 26 -6 37 -16 19 -18 25 -17 23 2 -1 3
5 6 13 6 8 0 12 -4 10 -8 -3 -4 2 -10 11 -13 8 -3 12 -2 9 3 -3 5 0 13 6 17 7
4 9 3 6 -3 -5 -7 10 -10 43 -8 35 2 55 -1 65 -12 14 -13 19 -10 16 9 0 4 6 5
14 1 10 -3 13 -12 10 -24 -5 -14 -2 -17 9 -13 8 3 14 11 13 17 -3 16 54 16 60
0 4 -11 8 -11 21 -1 12 10 14 10 8 1 -4 -7 -3 -13 3 -13 5 0 15 8 20 18 6 10
11 12 11 4 0 -7 4 -10 10 -7 5 3 7 0 4 -8 -3 -8 2 -14 11 -14 9 0 14 6 11 12
-2 6 2 12 9 12 7 0 11 -6 8 -14 -3 -8 0 -11 8 -8 8 3 20 -4 27 -16 8 -12 9
-18 4 -15 -6 3 -12 0 -15 -7 -3 -9 10 -12 50 -11 30 0 56 -3 59 -8 3 -5 10 -6
15 -3 16 11 49 14 49 5 0 -4 9 -6 20 -3 11 3 17 9 15 14 -3 4 -12 6 -20 2 -8
-3 -15 -1 -15 5 0 12 -33 10 -42 -2 -4 -6 -13 -4 -22 3 -13 11 -16 11 -16 0
-1 -8 -7 -3 -14 10 -11 21 -14 21 -20 6 -6 -17 -7 -17 -26 0 -24 22 -26 35 -4
35 10 0 14 -6 11 -15 -4 -8 -2 -17 3 -20 10 -6 14 7 11 35 -1 10 1 11 6 4 4
-6 16 -10 26 -8 9 1 15 -1 13 -5 -3 -4 4 -12 15 -19 21 -13 26 -3 7 16 -9 9
-9 12 0 12 7 0 12 -6 12 -12 0 -9 4 -8 11 2 9 12 12 13 16 1 5 -11 7 -11 15 0
6 10 7 7 3 -10 -5 -16 -4 -21 4 -17 6 4 11 15 12 24 0 14 2 13 8 -3 5 -11 7
-23 4 -27 -2 -5 0 -8 5 -8 16 0 21 12 12 29 -6 13 -4 17 10 17 10 0 17 -3 14
-7 -2 -4 3 -9 11 -13 8 -3 17 -1 20 4 4 6 1 10 -6 10 -7 0 -9 3 -6 7 4 3 15
-2 26 -11 11 -10 22 -13 25 -8 3 6 1 12 -5 14 -6 2 26 4 70 4 71 0 82 -3 87
-19 5 -15 8 -17 15 -6 4 8 4 16 -3 20 -5 4 1 6 15 7 17 0 29 -8 36 -24 12 -27
23 -30 40 -10 10 11 6 16 -16 24 l-28 11 28 -2 c15 -1 27 -5 27 -10 0 -4 5 -5
10 -2 6 4 8 10 6 14 -6 9 31 7 40 -2 4 -4 13 -2 21 5 10 8 12 8 8 -4 -4 -9 0
-15 10 -15 9 0 14 5 12 11 -3 8 12 11 42 11 25 0 53 4 61 10 13 8 13 7 3 -6
-7 -9 -10 -19 -6 -22 3 -4 11 1 18 10 13 17 50 28 39 12 -3 -5 -1 -9 5 -9 5 0
11 3 14 8 2 4 2 2 1 -5 -2 -6 4 -14 12 -17 12 -4 14 -1 9 13 -5 16 -1 19 15
18 11 -1 20 -5 20 -10 0 -5 -8 -6 -17 -3 -11 4 -8 -2 7 -13 14 -11 21 -23 17
-27 -4 -4 -7 -2 -7 4 0 7 -7 12 -16 12 -9 0 -14 -6 -12 -12 3 -7 12 -12 21
-12 10 1 34 2 55 3 26 1 33 4 23 10 -8 5 -23 8 -33 6 -10 -2 -18 -1 -19 3 -6
50 -7 49 33 47 22 -1 38 3 38 9 1 6 6 1 13 -12 14 -25 29 -20 20 6 -4 15 -3
15 6 2 8 -11 11 -12 11 -2 0 7 4 11 9 7 5 -3 12 -1 15 4 7 11 46 2 46 -11 0
-5 -4 -6 -10 -3 -6 3 -7 -1 -4 -10 6 -14 8 -14 19 2 7 10 11 21 9 25 -3 5 0 8
5 8 10 0 15 -13 13 -31 -1 -3 11 -6 27 -6 19 0 27 6 28 19 2 16 -1 17 -12 8
-16 -13 -35 -5 -34 13 0 9 2 9 6 0 2 -7 9 -13 14 -13 6 0 8 4 5 9 -3 5 8 7 24
6 17 -1 32 1 35 5 2 4 17 6 32 4 15 -1 34 3 42 9 12 9 13 9 7 0 -4 -7 -3 -13
3 -13 5 0 13 5 16 10 9 15 23 12 44 -9 18 -18 18 -18 31 2 10 17 10 19 -2 14
-8 -3 -21 -1 -29 4 -9 6 -1 7 24 4 26 -3 36 -1 31 7 -4 7 -3 8 5 4 6 -4 9 -11
6 -16 -3 -4 2 -11 11 -14 12 -4 14 -1 9 14 -4 11 -2 21 4 21 34 4 46 2 43 -9
-3 -16 15 -16 20 0 3 8 6 7 10 -3 3 -9 2 -22 -3 -30 -7 -12 -9 -12 -9 0 0 11
-5 9 -21 -5 -16 -14 -23 -15 -26 -7 -3 10 -9 9 -20 -3 -13 -12 -18 -13 -24 -3
-4 7 -5 17 -3 21 3 4 1 8 -5 8 -6 0 -15 -9 -21 -20 -6 -11 -16 -17 -22 -14 -7
5 -8 2 -3 -5 6 -10 3 -11 -14 -2 -11 7 -21 8 -21 3 0 -7 -19 -11 -67 -13 -14
-1 -23 -7 -23 -18 0 -9 3 -12 8 -6 4 6 17 10 30 9 12 -1 22 3 22 9 0 5 7 4 15
-3 8 -7 15 -8 15 -3 0 5 10 10 23 11 50 4 92 9 92 11 0 2 9 4 20 6 31 6 88 16
103 17 6 1 12 4 12 8 0 4 12 7 28 8 15 0 36 3 47 6 11 2 23 5 28 5 4 1 7 6 7
12 0 8 -5 8 -15 -1 -10 -9 -15 -9 -15 -1 0 6 5 11 10 11 6 0 10 5 10 11 0 5
-4 8 -9 4 -6 -3 -14 3 -20 13 -8 15 -6 18 12 19 12 0 16 -1 10 -4 -18 -7 -16
-20 2 -20 13 0 18 9 17 27 0 3 11 6 24 6 13 1 32 5 42 9 18 8 58 15 105 17 15
1 27 5 27 9 0 7 44 22 70 23 8 1 21 5 28 9 8 5 11 4 10 -4 -2 -6 2 -13 9 -16
7 -3 11 3 9 14 -3 13 3 20 17 22 38 5 51 4 72 -4 18 -8 19 -7 5 10 -9 11 -10
16 -2 11 7 -4 12 -2 12 4 0 7 6 10 13 7 6 -2 10 -12 9 -22 -3 -16 -2 -17 12
-6 12 10 13 17 5 27 -8 10 -6 12 10 9 12 -2 25 3 31 13 5 9 10 12 10 6 0 -5
-6 -16 -12 -23 -11 -10 -10 -12 2 -11 27 4 40 0 40 -11 0 -8 -4 -8 -14 0 -18
15 -28 0 -10 -16 9 -9 15 -9 19 -2 4 6 13 8 21 5 8 -3 14 -1 14 3 0 5 8 8 18
7 9 -2 33 5 52 14 19 10 41 20 48 22 10 2 9 8 -3 23 -13 17 -15 17 -13 3 2 -9
-1 -17 -7 -16 -5 0 -9 3 -8 7 1 4 -11 8 -27 8 -24 0 -27 -3 -19 -14 6 -7 15
-10 20 -7 5 3 9 0 9 -6 0 -7 -8 -9 -22 -5 -16 6 -20 4 -16 -7 4 -10 -2 -14
-22 -13 -16 0 -26 4 -23 8 3 5 11 6 19 3 8 -3 14 -2 14 3 0 15 -13 20 -29 11
-11 -5 -23 -5 -32 2 -11 8 -10 9 5 4 14 -5 17 -2 12 11 -4 10 -4 14 0 10 4 -4
14 -1 22 6 10 7 13 8 9 1 -4 -7 1 -18 10 -25 15 -12 16 -12 10 3 -5 13 2 22
24 34 17 8 28 11 25 5 -4 -6 0 -11 9 -11 9 0 13 5 10 10 -3 6 0 11 7 12 7 0
18 2 24 2 6 1 19 7 28 15 9 7 16 11 16 7 0 -4 11 1 24 9 27 18 40 8 30 -22 -6
-17 -6 -17 11 -1 15 14 16 20 6 32 -10 12 -9 14 6 11 10 -1 23 0 28 4 6 3 17
6 25 6 8 0 14 7 12 15 -2 8 0 12 3 8 4 -4 16 -3 26 3 15 8 17 6 12 -7 -5 -13
-3 -15 8 -9 12 8 12 6 0 -8 -7 -9 -10 -17 -5 -17 5 0 2 -4 -5 -9 -9 -6 -22 -6
-32 0 -27 14 -36 10 -15 -6 11 -8 14 -16 8 -16 -21 -2 -27 -4 -42 -14 -13 -7
-13 -6 -2 7 7 9 9 19 4 21 -4 3 -13 -3 -20 -14 -8 -12 -9 -19 -1 -19 5 0 7 -5
4 -11 -5 -7 -1 -8 11 -1 76 39 107 51 115 46 5 -3 9 2 9 11 0 9 -5 13 -11 9
-8 -4 -8 0 0 15 8 14 8 21 1 21 -5 0 -10 5 -10 12 0 6 3 8 7 5 3 -4 12 -2 20
4 8 8 13 8 13 1 0 -6 -5 -12 -10 -14 -6 -2 -1 -9 10 -15 18 -12 19 -11 16 16
-2 21 0 28 10 24 8 -3 14 1 14 8 0 7 3 9 7 6 11 -12 10 -64 -1 -65 -33 -3 -50
-10 -54 -21 -3 -9 5 -8 27 3 17 9 31 14 31 11 0 -4 13 3 29 14 15 11 31 18 35
14 3 -3 6 1 6 10 0 20 -18 18 -40 -3 -8 -9 -12 -11 -8 -5 4 7 5 15 1 18 -6 6
11 11 30 8 10 -2 9 17 -2 24 -5 3 -12 1 -16 -5 -9 -14 -28 -13 -23 2 3 7 16
13 31 13 14 1 33 7 40 14 8 6 22 9 31 5 11 -4 15 -2 13 7 -2 8 -2 11 0 7 3 -5
9 -8 14 -8 6 0 7 5 4 10 -3 6 -1 11 4 11 6 1 16 2 21 3 6 0 15 7 19 15 6 9 11
10 15 2 10 -16 26 -14 20 3 -8 22 15 30 35 12 26 -24 37 -19 15 6 -19 22 -19
22 0 8 18 -14 19 -13 12 5 -4 11 -4 16 0 12 4 -4 14 -1 22 6 13 10 14 9 8 -2
-6 -9 -4 -12 5 -9 8 3 14 10 14 16 0 6 7 17 15 24 12 11 12 11 3 -2 -7 -9 -8
-21 -3 -29 4 -8 6 -20 3 -28 -3 -7 -1 -13 5 -13 15 0 21 22 11 42 -13 24 16
51 48 47 3 0 10 6 15 15 5 9 13 14 18 11 6 -3 20 3 32 14 17 17 24 18 37 8 12
-10 14 -9 8 6 -6 15 -4 16 13 7 22 -12 40 -6 40 13 0 8 -3 8 -9 -2 -5 -7 -11
-9 -14 -5 -3 5 7 18 22 29 25 18 25 18 11 0 -13 -17 -13 -18 1 -13 9 4 22 1
28 -5 8 -8 11 -8 11 0 0 7 -5 15 -10 18 -6 4 -8 11 -4 16 3 5 10 7 15 3 5 -3
7 -10 4 -15 -10 -15 12 -10 29 7 20 20 21 35 1 28 -8 -4 -12 -11 -8 -17 4 -6
1 -7 -6 -2 -14 8 -2 25 20 28 8 2 21 7 29 12 15 10 20 11 41 14 5 0 7 6 3 12
-5 8 -1 8 13 0 20 -10 33 -6 33 10 0 5 -8 6 -17 3 -15 -5 -15 -4 -3 4 8 6 18
8 22 6 4 -3 8 0 8 5 0 6 5 11 11 11 6 0 17 7 26 15 8 8 19 13 24 10 5 -4 9 1
9 10 0 11 5 15 14 12 8 -3 17 -1 20 6 3 8 5 7 6 -3 1 -8 3 -23 5 -32 2 -11 -2
-15 -12 -11 -10 4 -11 8 -3 13 8 5 7 9 -3 13 -21 8 -30 -20 -10 -31 11 -6 12
-11 4 -16 -6 -4 -11 -3 -11 3 0 6 -7 8 -15 5 -8 -4 -12 -11 -8 -17 3 -5 1 -7
-4 -4 -6 4 -14 -1 -18 -11 -6 -16 -7 -16 -19 0 -11 15 -13 15 -24 -3 -8 -12
-8 -19 -2 -20 5 -1 16 -2 23 -3 6 -1 23 9 36 21 14 12 28 20 32 18 3 -3 18 5
31 18 14 12 46 33 72 46 47 24 55 38 34 59 -17 17 -24 15 -24 -8 0 -13 5 -19
13 -16 7 3 13 3 13 1 0 -7 -81 -47 -86 -42 -9 9 -13 47 -4 42 5 -3 13 3 19 12
6 10 11 13 11 6 0 -6 -5 -15 -10 -18 -6 -4 -8 -11 -5 -16 7 -11 26 -12 24 -1
-3 19 2 33 11 27 6 -3 10 -1 10 4 0 6 -6 11 -12 11 -7 1 -2 7 12 14 14 8 28
12 32 10 3 -2 8 1 11 8 2 7 3 5 2 -4 -2 -9 4 -19 11 -22 11 -4 13 1 8 21 -6
22 -4 25 10 20 12 -5 16 -2 14 10 -2 10 3 18 10 18 7 0 17 7 22 15 6 10 8 6 5
-15 -2 -17 -4 -34 -4 -39 -1 -4 -7 -6 -15 -3 -8 3 -18 -4 -24 -19 -8 -17 -17
-22 -29 -17 -14 4 -15 3 -7 -6 9 -10 16 -10 33 1 11 7 21 16 21 20 0 5 7 8 15
8 9 0 18 7 21 15 4 8 11 12 18 8 6 -3 6 -1 -1 8 -16 16 -17 29 -2 29 5 0 8 -4
5 -9 -15 -23 24 -16 51 9 17 16 34 26 37 23 3 -4 6 -2 6 4 0 6 9 13 20 16 11
3 20 13 20 22 0 9 -5 13 -10 10 -6 -4 -8 -10 -6 -14 3 -4 -1 -8 -9 -9 -8 -1
-22 -3 -30 -4 -8 -1 -15 -7 -15 -14 0 -7 -4 -16 -10 -19 -5 -3 -7 0 -4 8 3 8
1 18 -4 21 -6 4 -9 -4 -8 -19 2 -14 -1 -22 -7 -18 -6 4 -7 1 -2 -7 5 -8 4 -11
-3 -6 -6 4 -8 14 -5 24 5 14 3 15 -8 5 -16 -16 -29 -17 -29 -3 0 6 6 9 13 8 6
-2 10 4 9 12 -2 8 0 12 4 8 4 -4 16 2 27 15 15 16 19 18 14 5 -8 -22 6 -23 23
-3 10 12 10 15 -1 15 -8 0 -5 6 6 14 11 8 23 12 26 10 4 -2 10 3 13 12 8 21
28 7 21 -16 -10 -31 10 -30 58 3 47 32 68 61 24 32 -13 -8 -27 -12 -30 -8 -4
3 -7 -1 -7 -10 0 -9 -4 -19 -10 -22 -6 -4 -7 1 -3 11 5 13 3 15 -7 9 -9 -5
-11 -4 -6 3 4 7 2 12 -3 12 -6 0 -11 5 -11 12 0 9 3 9 12 0 17 -17 29 -15 22
3 -4 8 -1 15 6 15 6 0 8 5 4 13 -6 9 -4 9 8 -1 11 -9 18 -10 23 -2 3 5 0 10
-7 10 -7 1 2 9 20 18 18 10 30 21 27 24 -4 3 2 5 12 5 11 -1 17 4 15 13 -2 8
-1 12 3 9 3 -4 19 6 36 22 17 16 36 26 45 22 9 -3 13 0 11 8 -2 8 -2 11 0 7 3
-4 12 -1 20 8 14 13 18 13 40 -2 15 -9 22 -11 18 -3 -6 9 -3 10 11 5 10 -4 15
-4 11 0 -4 4 2 14 13 21 11 8 17 19 14 25 -5 7 -2 9 7 6 16 -6 41 16 31 28 -4
4 1 4 11 1 13 -5 20 0 27 16 5 12 9 18 9 13 1 -13 61 45 61 58 0 6 -12 12 -26
12 -14 1 -23 -1 -20 -4 3 -3 1 -11 -5 -19 -8 -9 -8 -13 -1 -13 6 0 14 5 17 10
3 6 10 10 16 10 5 0 1 -8 -8 -18 -10 -11 -28 -17 -39 -15 -18 2 -21 -2 -18
-23 2 -25 2 -25 -22 -9 -24 15 -24 15 -20 -8 3 -18 0 -24 -12 -23 -10 0 -17
-6 -16 -15 1 -12 -5 -15 -20 -12 -15 3 -17 2 -8 -5 19 -13 -17 -22 -43 -10
-19 8 -18 8 2 4 13 -2 24 2 27 11 5 11 2 13 -9 9 -10 -3 -13 -2 -10 5 4 5 15
7 25 4 13 -4 17 -1 16 12 -1 13 5 17 23 15 19 -2 21 0 12 12 -9 11 -8 15 6 21
10 5 22 7 26 6 4 0 10 6 13 14 3 8 10 13 14 10 4 -3 14 3 21 12 12 15 12 16
-6 10 -19 -6 -19 -6 -1 6 11 7 28 20 38 30 10 9 18 12 18 6 0 -5 5 -7 10 -4 6
4 8 10 5 14 -5 9 74 85 90 86 6 1 9 7 7 14 -1 7 2 10 8 6 5 -3 10 -1 10 6 0 8
5 7 16 -2 15 -12 16 -11 10 11 -5 17 -4 21 2 11 11 -16 21 -3 17 22 -2 9 1 15
6 11 5 -3 9 0 9 5 0 6 5 10 12 9 7 -2 12 2 13 9 0 17 25 41 25 25 0 -7 -5 -12
-12 -12 -6 0 -3 -6 7 -14 18 -13 18 -14 -1 -23 -10 -6 -26 -8 -34 -5 -13 5
-13 3 -1 -12 8 -9 11 -19 7 -23 -3 -3 -6 -1 -6 6 0 7 -5 9 -11 5 -8 -4 -7 -9
2 -16 11 -7 9 -8 -5 -4 -14 5 -17 2 -12 -9 3 -9 2 -13 -3 -10 -5 3 -12 1 -16
-5 -3 -5 0 -10 8 -10 8 0 32 20 54 44 23 25 44 42 48 38 4 -4 4 2 -1 13 -5 11
-9 27 -9 35 1 19 24 59 25 42 0 -7 5 -10 10 -7 6 4 8 11 4 16 -3 5 -1 16 5 23
9 11 17 11 35 3 l24 -12 -22 -15 c-11 -8 -25 -15 -30 -15 -5 0 -11 -6 -14 -14
-3 -9 0 -11 8 -6 8 5 11 4 6 -3 -4 -6 -14 -8 -23 -5 -11 4 -14 3 -9 -5 4 -7 2
-12 -4 -12 -6 0 -8 -5 -5 -11 8 -12 105 79 105 99 0 7 -4 10 -10 7 -21 -13
-30 6 -14 31 18 26 29 24 29 -7 0 -10 5 -18 10 -18 6 1 9 5 7 10 -1 5 3 9 9 9
14 0 39 26 32 34 -3 3 -12 -2 -20 -12 -12 -16 -13 -16 -7 1 5 13 2 16 -10 11
-9 -3 -16 -1 -16 6 0 6 5 8 10 5 6 -3 10 0 10 8 0 8 17 30 38 49 20 18 38 38
40 43 2 6 13 15 25 22 12 7 18 12 13 13 -4 0 10 19 33 42 22 24 41 46 41 50 0
5 7 8 15 8 8 0 15 6 15 13 0 21 20 35 41 30 18 -5 19 -6 2 -19 -10 -7 -13 -13
-8 -14 16 0 29 12 60 55 17 22 32 42 35 45 6 5 80 98 92 115 4 5 19 23 32 39
14 15 28 37 31 47 4 11 10 19 15 19 5 0 6 7 3 17 -4 9 -2 14 4 10 8 -5 48 31
46 43 0 3 9 15 20 27 25 26 32 77 9 68 -12 -4 -13 -3 -2 10 7 8 9 15 4 15 -4
0 7 16 26 35 19 19 30 35 26 35 -5 0 -3 7 4 15 10 12 16 13 27 4 11 -10 18 -7
36 11 18 20 18 23 3 17 -10 -4 -20 -7 -22 -7 -3 0 -2 -6 2 -12 5 -9 2 -9 -9 1
-9 7 -17 14 -17 15 0 1 12 18 26 37 15 19 24 26 21 17 -4 -10 -2 -18 4 -18 6
0 7 -5 4 -10 -3 -6 -2 -10 3 -10 5 0 15 11 22 25 7 14 17 25 21 25 8 0 6 26
-3 36 -12 12 -30 -7 -19 -20 8 -9 6 -18 -5 -32 -8 -10 -13 -13 -9 -6 4 7 2 19
-5 26 -8 11 -5 18 14 34 14 10 22 23 18 27 -4 5 -1 5 6 1 11 -6 17 5 13 27 0
4 3 7 9 7 5 0 10 5 10 11 0 5 -5 7 -12 3 -7 -5 -8 -3 -3 6 6 10 11 9 23 -6 10
-14 16 -15 19 -6 3 7 11 18 18 25 18 19 29 57 15 57 -6 0 -8 -5 -4 -12 5 -7 3
-8 -6 -3 -10 6 -12 4 -7 -8 9 -23 -8 -30 -24 -10 -10 12 -10 14 -1 9 7 -4 12
-1 12 8 0 9 5 16 11 16 6 0 7 6 2 13 -4 6 6 3 22 -7 17 -10 27 -15 22 -11 -4
5 0 19 8 31 11 17 12 24 2 27 -7 3 -4 6 6 6 11 1 22 13 28 31 6 16 15 30 20
30 5 0 9 8 9 19 0 10 7 24 15 31 15 13 21 40 8 40 -3 0 -15 -7 -25 -17 -22
-20 -24 -11 -2 12 9 8 24 13 33 10 10 -3 18 0 18 7 0 7 2 18 3 23 1 6 2 16 1
24 -1 11 -4 11 -18 0 -14 -12 -14 -10 1 14 10 15 22 27 27 27 14 0 20 -18 8
-26 -8 -4 -9 -3 -5 4 4 7 2 12 -3 12 -14 0 -14 -17 0 -26 13 -8 31 16 24 34
-2 6 -1 12 4 12 15 0 61 98 54 116 -4 11 -3 15 5 10 13 -8 36 30 27 44 -3 6
-1 10 5 10 6 0 8 5 5 10 -11 18 -26 -1 -20 -23 5 -16 4 -18 -3 -8 -7 9 -12 10
-16 2 -4 -6 -2 -11 3 -11 6 0 11 -4 11 -9 0 -8 -13 -8 -38 -2 -2 1 8 16 22 34
14 19 24 36 21 39 -3 2 2 5 10 5 8 0 12 -4 9 -9 -3 -4 0 -8 5 -8 17 0 13 18
-6 29 -11 6 -13 11 -5 11 7 0 11 4 8 8 -2 4 0 14 5 22 7 11 8 7 5 -13 -3 -19
-1 -27 7 -24 7 2 11 12 9 22 -2 10 1 14 8 10 6 -3 10 -3 9 2 -1 4 7 30 19 56
12 27 22 55 22 63 0 8 6 17 13 20 8 3 14 11 14 19 0 8 -5 11 -10 8 -6 -3 -7
-1 -3 5 3 5 0 13 -6 16 -7 3 -3 3 10 0 17 -4 22 -1 22 15 0 11 6 26 13 33 7 7
12 18 12 25 0 16 -15 29 -16 15 -1 -7 -3 -15 -4 -19 -2 -5 -6 -18 -10 -31 -4
-12 -11 -22 -17 -22 -5 0 -3 10 4 23 7 12 13 24 13 27 2 19 29 70 38 70 7 0 7
-4 -1 -12 -15 -15 -15 -28 -1 -28 5 0 7 5 4 10 -3 6 -2 10 3 10 5 0 12 9 15
20 4 17 2 20 -16 16 -12 -3 -16 -3 -9 0 6 3 9 10 6 16 -4 6 1 8 15 3 16 -5 20
-3 15 9 -3 9 -11 13 -16 10 -6 -4 -4 4 2 17 18 34 24 38 16 11 -5 -14 -3 -22
4 -22 6 0 9 4 6 9 -4 5 -1 11 5 13 8 3 6 10 -5 21 -10 9 -14 17 -9 17 5 0 15
-6 22 -12 10 -11 11 -10 6 4 -5 11 -2 18 5 18 7 0 10 7 7 15 -4 8 -2 17 4 20
5 4 7 11 4 16 -4 5 -1 9 6 9 7 0 9 3 6 6 -3 4 -2 15 4 26 10 18 8 19 -13 13
-20 -5 -21 -4 -5 5 9 6 15 15 12 21 -3 5 -1 17 5 26 10 16 11 15 7 -4 -3 -13
0 -26 5 -30 7 -3 8 -1 4 5 -4 7 -3 12 3 12 14 0 7 30 -10 41 -10 8 -7 8 11 3
14 -3 22 -3 18 1 -3 3 0 22 8 40 17 42 17 45 2 45 -6 0 -8 -3 -5 -6 3 -4 1
-16 -5 -28 -7 -11 -11 -25 -10 -29 1 -5 -2 -6 -8 -2 -8 5 -8 11 0 20 6 7 13
22 15 34 2 11 9 29 15 38 11 17 11 17 6 0 -9 -27 3 -20 14 9 7 19 7 31 -1 40
-10 12 -9 13 5 8 11 -4 16 -1 16 11 0 9 -4 14 -8 11 -5 -3 -9 1 -9 8 0 9 7 12
16 8 13 -5 14 -3 4 9 -8 10 -9 19 -1 29 8 12 9 12 4 -2 -3 -10 -2 -18 3 -18 4
0 14 26 21 58 18 74 17 72 20 75 1 1 3 11 5 22 4 20 4 20 -11 1 -8 -11 -14
-15 -14 -9 0 7 5 15 10 18 6 4 8 11 5 16 -4 5 -3 15 2 22 10 15 15 37 14 62 0
16 2 17 9 5 5 -8 4 -22 -2 -34 -8 -16 -8 -18 2 -10 6 6 13 22 15 35 1 13 6 32
10 42 4 10 3 17 -5 17 -6 0 -9 -4 -5 -9 3 -5 1 -12 -5 -16 -21 -13 -9 23 13
39 22 15 22 16 3 31 -11 8 -14 15 -7 15 7 0 10 4 6 9 -3 5 -1 12 5 16 6 4 8
11 4 16 -3 5 0 8 7 7 7 -2 14 7 15 18 0 12 4 26 8 32 3 6 2 13 -4 17 -5 3 -10
11 -10 16 0 6 5 7 10 4 6 -3 10 0 11 7 0 7 2 21 4 31 2 9 0 15 -5 12 -13 -8
-6 21 9 39 7 9 11 24 9 34 -3 10 1 24 9 31 11 10 12 16 4 24 -15 15 -14 30 2
21 7 -5 6 0 -3 11 -8 10 -10 16 -3 12 15 -10 22 13 12 41 -6 14 -5 21 0 17 6
-3 9 3 9 12 0 10 3 27 7 37 7 15 5 17 -6 11 -11 -7 -12 -6 -3 6 17 21 25 61
11 52 -9 -5 -9 -3 -1 8 16 21 26 51 14 44 -14 -9 -12 8 3 24 10 11 9 12 -3 6
-12 -7 -13 -6 -3 6 14 18 20 70 9 88 -7 10 -5 12 4 6 8 -5 11 -3 8 6 -3 8 -1
22 4 33 7 13 7 16 -1 12 -6 -4 -11 -3 -11 3 0 5 5 13 10 16 6 4 9 29 7 56 -2
27 1 49 6 49 5 0 4 6 -2 14 -7 9 -8 17 -2 20 5 3 8 19 7 36 -1 16 3 32 8 34 6
3 5 5 -2 5 -10 1 -10 6 -2 21 8 15 8 20 -2 20 -10 0 -10 2 1 9 9 6 10 10 2 16
-9 5 -9 10 0 21 9 11 8 18 -2 31 -8 10 -9 14 -2 10 9 -6 11 7 10 48 -2 31 -1
58 2 61 11 11 1 488 -14 664 -11 132 -17 199 -22 235 -2 22 -6 56 -8 75 -3 37
-13 118 -21 160 -2 14 -7 44 -10 66 -2 23 -7 53 -9 65 -6 28 -26 146 -30 174
-2 11 -4 20 -5 20 -1 0 -3 9 -5 20 -13 93 -105 461 -151 606 -15 46 -27 89
-29 94 -1 6 -4 17 -8 25 -3 8 -20 58 -37 110 -140 415 -344 847 -584 1240 -71
117 -244 381 -255 390 -4 3 -28 35 -54 72 -26 37 -70 96 -97 130 -28 35 -60
76 -73 92 -26 33 -138 166 -211 250 -63 72 -402 414 -472 476 -62 55 -90 79
-174 150 -35 30 -70 60 -76 65 -6 6 -26 21 -44 35 -18 14 -38 30 -44 36 -28
27 -293 219 -401 290 -66 43 -121 82 -123 87 -2 4 -7 7 -12 7 -4 0 -50 26
-101 58 -52 32 -114 69 -139 83 -25 13 -52 29 -60 35 -18 14 -397 207 -485
246 -149 67 -354 149 -500 200 -16 5 -39 14 -50 18 -23 10 -243 81 -265 85 -8
2 -15 4 -15 5 0 1 -7 3 -15 5 -8 2 -82 22 -165 44 -82 22 -161 43 -175 45 -42
8 -79 16 -148 32 -37 9 -80 17 -97 19 -16 3 -66 11 -110 19 -93 17 -138 24
-203 32 -26 3 -60 7 -77 11 -38 7 -94 13 -275 29 -138 13 -235 16 -517 19
-172 1 -313 1 -315 0z m77 -2417 c4 0 12 6 16 14 5 7 9 8 9 2 0 -6 7 -11 15
-11 8 0 15 5 15 10 0 5 9 -1 20 -14 10 -13 19 -19 20 -13 0 5 -5 15 -11 21 -9
9 -7 11 7 8 11 -1 18 -7 17 -13 -1 -6 4 -13 13 -16 10 -4 14 0 12 11 -2 10 5
17 19 18 12 1 20 -2 17 -7 -3 -4 -3 -8 0 -8 2 0 13 -3 23 -7 15 -6 16 -4 6 8
-11 13 -8 15 20 13 42 -2 41 -2 28 -17 -6 -8 -7 -18 -3 -22 4 -5 2 -5 -5 -1
-6 3 -14 2 -18 -4 -5 -9 16 -14 53 -13 6 1 12 -3 12 -7 0 -5 8 -7 18 -5 9 2
20 4 24 4 4 1 5 8 2 16 -4 8 -10 12 -15 9 -5 -3 -6 -10 -3 -16 4 -6 -2 -5 -15
1 -12 7 -25 9 -30 6 -5 -3 -8 3 -6 12 2 10 4 23 4 29 1 7 18 11 44 9 23 -1 41
-7 40 -13 -1 -5 5 -13 13 -16 12 -5 14 -1 10 17 -3 12 -3 16 0 10 4 -9 11 -10
24 -3 13 7 21 7 25 0 5 -8 11 -8 20 0 9 7 15 7 19 1 4 -5 15 -8 26 -6 14 3 17
-1 14 -13 -5 -14 -2 -13 10 2 9 11 17 15 17 8 3 -26 4 -31 12 -38 7 -7 11 8 8
36 -1 9 1 11 6 5 4 -6 26 -10 49 -10 42 1 44 -1 44 -50 1 -13 8 -21 20 -22 11
-1 20 3 20 8 0 6 -4 7 -10 4 -5 -3 -10 -1 -10 5 0 7 7 10 15 6 17 -6 19 2 5
24 -9 13 -10 13 -10 0 -1 -11 -3 -11 -11 3 -6 10 -8 21 -5 24 3 4 6 2 6 -4 0
-6 15 -10 34 -8 28 1 33 -1 28 -14 -5 -14 -4 -14 12 -2 14 12 19 12 26 2 9
-16 1 -51 -12 -51 -5 0 -7 4 -4 8 2 4 -9 8 -25 7 -16 0 -29 -3 -29 -6 0 -10
77 -20 96 -12 10 3 15 2 12 -3 -4 -5 13 -10 35 -11 39 -3 82 -9 82 -13 0 -1
12 -4 28 -6 15 -3 27 0 27 6 0 6 -5 8 -12 4 -7 -4 -8 -3 -4 4 9 16 -7 15 -22
0 -9 -9 -12 -9 -12 1 0 8 -7 11 -17 7 -15 -5 -15 -4 1 9 11 8 17 18 13 22 -4
3 -16 -2 -27 -12 -23 -21 -45 -10 -30 15 9 13 11 13 20 0 8 -13 14 -8 12 11
-1 8 31 5 46 -5 6 -4 17 -4 24 0 7 5 8 3 4 -5 -5 -7 -14 -10 -21 -7 -7 2 -16
-1 -18 -8 -3 -8 4 -13 24 -13 15 0 26 3 24 7 -2 3 0 12 6 20 5 8 9 10 9 4 0
-6 11 -10 25 -9 14 2 23 0 20 -5 -3 -4 3 -14 12 -21 15 -12 16 -12 10 4 -5 14
-3 16 12 8 10 -6 21 -7 25 -4 3 3 6 1 6 -6 0 -7 5 -9 11 -5 8 4 8 0 0 -15 -7
-11 -8 -21 -2 -21 9 0 25 29 23 42 -1 4 5 5 14 1 9 -3 12 -9 7 -12 -20 -14
-11 -29 15 -26 39 5 39 6 17 15 -16 7 -17 9 -3 9 20 1 33 -15 19 -24 -6 -3 -7
-13 -4 -23 4 -13 2 -13 -10 3 -8 11 -19 17 -23 12 -4 -4 -2 -7 4 -7 7 0 12 -5
12 -11 0 -8 -5 -7 -15 1 -9 7 -18 10 -22 6 -11 -10 4 -18 39 -19 27 -2 33 2
34 21 2 32 11 37 24 13 12 -23 5 -45 -11 -36 -5 4 -9 2 -9 -3 0 -15 35 -21 55
-9 14 7 21 5 32 -9 8 -10 19 -18 24 -17 5 2 9 -1 9 -5 0 -4 8 -9 18 -10 9 -1
26 -3 37 -4 11 -2 25 -10 32 -18 9 -11 12 -12 13 -2 0 7 -6 20 -14 27 -10 11
-16 11 -27 2 -11 -10 -11 -9 -2 3 8 10 9 21 3 30 -9 14 -11 13 -14 -9 -3 -20
-17 -23 -35 -7 -15 13 -20 14 -25 4 -3 -7 -3 -2 0 11 3 13 2 21 -3 18 -14 -9
-36 9 -28 22 5 8 11 9 19 2 7 -6 17 -7 21 -3 5 4 5 1 1 -6 -6 -9 -1 -11 18 -8
14 3 26 1 26 -3 0 -4 6 -8 13 -9 49 -4 61 -13 62 -50 0 -15 6 -26 13 -25 7 2
12 -1 12 -5 0 -7 80 -37 88 -33 1 1 15 -5 30 -12 32 -16 40 -16 67 1 19 12 19
12 -5 10 -14 -2 -28 -7 -32 -13 -5 -6 -8 -5 -8 3 0 7 -5 10 -11 6 -8 -5 -8 -1
0 14 8 15 7 21 -3 25 -15 6 -26 -1 -26 -15 0 -5 5 -6 12 -2 7 4 8 3 4 -5 -6
-8 -12 -9 -20 -2 -7 6 -17 7 -21 3 -5 -4 -4 -1 0 7 6 11 4 13 -8 8 -18 -7 -66
11 -68 25 -3 19 -5 24 -13 37 -5 8 1 7 18 -4 15 -10 29 -15 33 -12 3 4 18 0
33 -8 15 -8 30 -12 33 -8 3 3 14 -2 23 -11 9 -10 23 -15 31 -12 8 3 11 1 8 -4
-6 -9 -1 -11 35 -14 8 -1 14 -9 12 -19 -2 -11 2 -15 13 -11 8 3 12 10 9 15 -3
5 2 6 11 2 9 -3 13 -9 8 -12 -14 -11 -13 -49 2 -61 8 -7 26 -12 40 -12 15 0
22 -5 18 -11 -4 -6 0 -8 10 -4 10 3 17 2 17 -4 0 -6 5 -7 11 -3 8 4 5 10 -7
17 -11 6 -22 15 -26 21 -6 8 -11 6 -19 -4 -9 -12 -10 -12 -7 -1 6 21 24 24 41
6 17 -16 32 -20 22 -6 -12 21 16 21 44 0 17 -12 34 -18 42 -14 7 5 10 4 6 -2
-8 -12 20 -26 34 -17 5 3 12 -2 15 -10 3 -9 10 -13 15 -10 5 3 9 0 9 -6 0 -6
3 -9 8 -7 4 3 8 -7 8 -21 1 -15 -1 -21 -3 -13 -4 10 -7 10 -13 1 -5 -9 -9 -9
-14 -1 -4 6 -2 11 3 11 20 0 11 17 -14 28 -35 16 -43 15 -19 -2 10 -8 16 -18
11 -22 -4 -4 -7 -2 -7 5 0 7 -4 9 -10 6 -9 -6 -14 8 -11 28 1 10 -17 9 -23 -2
-7 -11 24 -45 44 -49 8 -2 21 -9 29 -15 8 -7 24 -11 35 -9 17 2 18 1 6 -7 -9
-7 -10 -11 -3 -11 16 0 28 21 17 29 -5 3 -10 15 -12 26 -2 14 0 16 6 7 5 -7
15 -14 23 -16 8 -1 41 -18 74 -37 33 -18 64 -33 68 -31 4 1 10 -5 13 -13 3 -8
10 -12 15 -9 5 3 9 0 9 -6 0 -7 -7 -9 -16 -6 -12 5 -14 1 -9 -17 5 -17 4 -19
-4 -7 -6 8 -8 22 -6 31 3 10 -1 16 -10 16 -9 0 -14 -6 -11 -13 3 -8 0 -16 -6
-20 -7 -5 -8 -2 -3 6 5 9 4 11 -3 6 -8 -4 -10 -2 -6 7 5 14 -20 47 -35 47 -4
0 -8 -7 -8 -15 0 -9 6 -14 14 -11 8 3 11 1 8 -4 -3 -6 -1 -10 6 -10 7 0 10 -3
7 -6 -10 -10 -49 16 -42 28 5 8 1 9 -12 4 -10 -4 -15 -4 -11 0 4 4 -1 13 -11
21 -9 8 -11 12 -4 8 14 -7 17 11 3 20 -6 3 -15 -3 -20 -14 -15 -27 -14 -31 6
-24 9 4 14 2 10 -3 -6 -11 92 -70 111 -66 6 2 12 -1 12 -7 0 -5 26 -24 58 -42
31 -18 59 -35 62 -38 3 -3 12 -7 20 -9 8 -2 17 -8 18 -13 4 -11 22 -12 22 -1
0 5 -11 14 -25 20 -16 7 -23 17 -19 27 8 19 18 19 38 0 8 -8 19 -15 25 -15 6
0 11 -5 11 -11 0 -5 4 -8 8 -5 5 3 16 -4 25 -15 10 -11 22 -17 27 -14 5 3 7
-4 5 -15 -2 -11 0 -20 6 -20 5 0 9 5 9 11 0 6 7 3 16 -5 8 -9 19 -16 24 -16 5
0 14 -10 21 -21 6 -13 7 -19 1 -15 -6 3 -12 2 -14 -3 -1 -6 -14 -1 -28 10 -14
12 -20 18 -13 15 6 -4 14 -2 17 3 3 5 -1 11 -8 14 -8 3 -16 1 -18 -5 -2 -6
-11 -4 -21 6 -9 10 -14 22 -11 28 4 6 -1 8 -15 3 -13 -4 -21 -2 -21 5 0 6 -4
9 -9 6 -5 -3 -8 2 -7 11 0 9 -4 18 -10 20 -6 2 -10 -7 -9 -19 1 -13 9 -24 18
-26 9 -2 17 -8 17 -13 0 -6 4 -8 9 -5 5 3 11 -1 15 -9 3 -8 10 -15 16 -15 6 0
17 -6 25 -12 30 -29 56 -48 65 -48 6 0 10 -5 10 -11 0 -5 5 -7 10 -4 6 3 10
14 10 23 0 12 -3 13 -8 5 -4 -7 -13 -9 -19 -5 -7 5 -3 11 13 19 13 6 22 7 18
2 -5 -8 9 -13 29 -10 4 0 6 -2 6 -6 -3 -18 2 -36 7 -30 10 10 45 -13 38 -24
-3 -6 2 -9 12 -7 10 2 19 -2 19 -9 0 -17 15 -29 15 -12 1 8 7 3 15 -11 8 -14
14 -21 15 -16 0 6 14 -3 30 -19 18 -17 28 -35 25 -45 -3 -11 2 -16 16 -17 18
-2 19 0 7 15 -7 9 3 3 23 -13 22 -19 31 -33 25 -37 -7 -5 -7 -8 2 -8 6 0 14 1
16 3 2 1 19 -14 38 -33 18 -19 36 -34 40 -32 16 5 7 -8 -12 -18 -17 -9 -19 -8
-14 7 5 15 4 16 -6 3 -9 -12 -10 -10 -4 10 6 23 5 24 -10 11 -16 -13 -16 -16
4 -35 18 -18 23 -19 41 -8 16 10 24 11 33 2 8 -8 6 -9 -8 -4 -15 6 -17 4 -11
-6 5 -9 4 -11 -3 -6 -17 11 -15 -19 3 -34 16 -13 39 -4 29 12 -4 7 -9 6 -14
-2 -5 -8 -10 -8 -14 -2 -11 18 22 21 42 4 18 -16 27 -57 10 -46 -5 3 -6 9 -3
14 3 5 1 11 -4 14 -5 3 -11 0 -14 -7 -3 -8 4 -19 15 -26 17 -11 20 -9 25 10
l6 23 9 -23 c4 -12 11 -20 15 -18 15 8 52 -48 42 -64 -6 -10 -9 -11 -9 -1 0 7
-4 11 -9 7 -6 -3 12 -28 38 -55 26 -27 46 -52 43 -55 -3 -3 2 -5 10 -5 11 0
14 6 11 20 -6 23 -23 37 -23 20 0 -6 -5 -8 -11 -4 -8 4 -7 9 2 15 20 13 50
-27 43 -55 -4 -16 -1 -23 10 -23 12 0 14 6 10 21 -5 15 2 11 22 -13 16 -19 29
-37 28 -40 -1 -3 6 -11 15 -18 13 -10 14 -14 3 -25 -11 -11 -12 -10 -7 5 7 18
-9 24 -20 7 -3 -5 6 -17 20 -26 14 -9 25 -23 25 -30 0 -8 4 -14 9 -14 4 0 6
11 3 25 -2 14 -9 22 -15 18 -6 -4 -7 -1 -2 6 9 15 21 4 27 -24 2 -11 9 -19 16
-18 17 4 45 -54 30 -63 -7 -5 -8 -3 -3 6 6 9 4 11 -5 5 -8 -5 -11 -4 -7 3 10
15 -1 39 -18 39 -8 0 -15 -4 -15 -9 0 -4 5 -8 11 -8 5 0 8 -4 5 -9 -3 -4 3
-16 14 -26 17 -15 22 -16 37 -4 15 12 15 10 -1 -8 -17 -20 -17 -23 -2 -29 9
-3 16 -12 16 -20 0 -8 5 -14 10 -14 6 0 10 -7 10 -15 0 -8 5 -15 11 -15 7 0 4
11 -7 28 -13 19 -13 24 -2 15 8 -7 18 -10 22 -6 4 4 4 0 1 -9 -4 -9 0 -18 10
-21 11 -5 14 -15 11 -34 -3 -16 0 -30 7 -35 17 -11 27 -10 27 2 0 5 -3 9 -8 7
-8 -2 -12 6 -12 26 0 6 9 -1 19 -17 14 -21 17 -35 11 -47 -7 -12 -5 -19 6 -23
12 -4 15 -2 10 9 -8 22 0 18 18 -9 11 -18 13 -27 4 -32 -6 -4 -8 -3 -4 4 3 6
2 13 -3 16 -5 3 -11 0 -14 -8 -6 -15 19 -30 33 -21 5 3 11 1 14 -4 4 -5 1 -13
-5 -17 -8 -5 -9 -3 -4 6 5 9 4 11 -4 6 -9 -6 -8 -13 4 -29 8 -12 20 -32 27
-44 6 -13 16 -23 21 -23 5 0 4 7 -3 15 -11 13 -10 14 4 9 18 -7 21 -20 6 -29
-6 -4 1 -23 18 -48 32 -47 46 -77 43 -92 -1 -5 6 -1 15 10 16 20 16 20 9 -4
-6 -18 -4 -22 6 -15 10 6 10 3 -1 -11 -14 -17 -13 -18 2 -12 10 3 20 1 24 -5
4 -6 3 -8 -4 -4 -6 3 -13 2 -17 -4 -3 -5 -2 -10 3 -10 5 0 17 -19 27 -42 10
-24 28 -50 39 -59 19 -17 33 -54 15 -43 -5 3 -4 -6 2 -20 7 -14 15 -23 19 -21
5 3 11 -2 14 -11 4 -9 2 -13 -5 -8 -8 4 -7 0 0 -15 7 -11 14 -21 17 -21 3 0 2
5 -2 12 -4 7 -3 8 5 4 9 -6 9 -11 0 -22 -9 -11 -8 -14 5 -14 9 0 16 -5 16 -11
0 -5 -4 -7 -10 -4 -6 3 -7 -1 -4 -9 3 -9 10 -14 14 -11 4 3 11 -2 14 -11 3 -8
2 -12 -4 -9 -6 3 -7 -1 -4 -9 3 -9 9 -14 13 -12 3 2 6 -9 7 -25 1 -16 9 -38
19 -49 9 -10 14 -24 10 -29 -3 -6 2 -11 12 -11 14 0 15 -2 4 -9 -9 -6 -10 -11
-2 -15 6 -4 9 -12 6 -17 -4 -5 -1 -9 5 -9 6 0 8 -4 5 -10 -3 -5 -2 -10 4 -10
6 0 8 -7 4 -15 -3 -9 3 -25 12 -35 10 -11 15 -23 12 -27 -4 -3 -2 -12 4 -19 6
-8 9 -21 5 -29 -3 -8 -1 -15 5 -15 6 0 7 -4 4 -10 -3 -5 -1 -10 4 -10 6 0 10
-3 9 -7 -3 -16 15 -83 23 -89 5 -3 7 -10 4 -15 -4 -5 -3 -15 2 -21 4 -7 8 -17
9 -23 5 -25 11 -52 17 -75 26 -108 39 -164 42 -192 3 -18 7 -44 10 -58 7 -34
14 -76 21 -130 3 -25 7 -61 9 -80 3 -19 6 -63 8 -96 3 -34 7 -65 9 -70 8 -13
2 -567 -6 -634 -4 -30 -9 -71 -10 -90 -6 -55 -16 -133 -21 -155 -2 -11 -7 -42
-11 -70 -3 -27 -8 -54 -11 -58 -2 -4 -6 -20 -8 -35 -8 -57 -17 -101 -46 -212
-17 -63 -32 -119 -33 -125 -13 -51 -71 -223 -79 -232 -5 -7 -6 -13 -1 -13 4 0
3 -5 -4 -12 -7 -7 -12 -22 -12 -34 0 -13 -4 -25 -9 -28 -5 -3 -12 -17 -15 -31
-4 -14 -18 -50 -31 -80 -14 -29 -25 -57 -25 -61 0 -13 -182 -369 -191 -372 -5
-2 -9 -10 -9 -17 0 -7 -16 -36 -35 -65 -19 -29 -35 -54 -35 -57 0 -2 -25 -40
-55 -84 -30 -44 -55 -82 -55 -85 0 -2 -5 -10 -10 -17 -6 -7 -43 -55 -82 -107
-66 -88 -129 -164 -218 -265 -40 -45 -271 -276 -317 -318 -26 -23 -122 -102
-196 -163 -95 -77 -369 -261 -482 -324 -96 -53 -316 -164 -365 -185 -25 -10
-64 -27 -87 -37 -43 -19 -167 -66 -193 -73 -8 -2 -42 -14 -75 -25 -61 -21
-316 -93 -370 -104 -16 -4 -41 -9 -55 -12 -14 -2 -47 -9 -75 -14 -27 -5 -63
-12 -80 -15 -33 -6 -63 -11 -128 -20 -23 -3 -53 -8 -67 -10 -22 -4 -61 -7
-235 -20 -59 -5 -411 -5 -475 -1 -30 3 -89 7 -130 10 -87 6 -168 15 -190 21
-8 2 -37 7 -65 11 -27 3 -59 8 -70 10 -11 2 -33 5 -50 8 -85 13 -359 81 -435
108 -8 3 -35 12 -60 19 -141 41 -532 203 -572 237 -10 8 -18 12 -18 9 0 -6
-231 122 -240 133 -3 4 -13 10 -23 13 -62 23 -454 314 -582 432 -176 162 -312
305 -445 470 -35 44 -68 82 -72 83 -5 2 -8 9 -8 15 0 7 -10 23 -23 37 -23 24
-237 344 -237 353 0 2 -24 47 -53 98 -47 83 -92 172 -111 219 -3 8 -10 22 -15
30 -9 15 -34 71 -35 80 -1 3 -5 10 -9 17 -24 37 -166 441 -181 513 -11 55 -16
74 -25 104 -9 29 -42 185 -56 271 -4 22 -9 49 -11 60 -8 43 -23 171 -30 250
-9 103 -11 541 -3 557 6 10 5 19 -1 23 -8 5 -7 11 1 21 9 11 8 14 -2 14 -9 0
-10 3 -4 8 6 4 10 18 10 32 0 14 4 28 10 32 6 5 6 8 -2 8 -7 0 -13 5 -13 11 0
5 4 8 9 5 5 -4 7 12 4 36 -4 26 -2 39 4 35 5 -3 10 0 10 8 0 8 -3 12 -7 10 -3
-2 -6 5 -6 15 0 10 4 16 8 13 5 -2 7 7 4 21 -3 14 0 26 5 26 5 0 9 5 9 11 0 5
-4 8 -9 5 -4 -3 -8 4 -7 15 0 11 8 24 16 29 8 5 10 10 4 10 -6 0 -11 7 -11 15
0 8 4 12 9 9 4 -3 8 0 8 5 0 6 -6 11 -12 11 -10 0 -9 3 1 9 8 5 10 14 6 22 -6
9 -3 10 10 5 18 -6 18 -6 -1 15 -10 12 -14 19 -7 16 6 -4 14 -3 18 3 3 5 2 10
-3 10 -6 0 -9 11 -8 24 1 16 6 22 15 18 10 -4 12 -1 5 9 -13 21 -13 38 0 33 7
-3 12 5 13 18 2 18 0 20 -7 8 -7 -11 -10 -11 -10 -2 0 7 7 15 15 18 8 4 15 14
14 23 0 10 -2 11 -6 4 -2 -7 -10 -13 -16 -13 -8 0 -8 3 0 11 6 6 9 17 7 24 -3
7 -1 16 5 20 7 3 8 0 5 -9 -3 -9 -2 -16 3 -16 5 0 10 11 11 26 1 17 -2 23 -11
19 -6 -4 -4 0 5 8 10 7 23 38 29 68 6 30 17 58 23 62 7 6 4 7 -6 3 -10 -3 -20
0 -24 6 -4 7 -3 8 4 4 7 -4 12 -2 12 4 0 6 5 8 11 4 8 -4 8 0 0 15 -8 14 -9
27 -2 40 6 10 7 22 3 26 -4 5 -1 5 6 1 7 -4 10 -12 7 -17 -4 -5 -2 -9 3 -9 6
0 13 7 16 16 3 8 2 13 -3 10 -5 -3 -11 1 -15 9 -3 8 -1 17 5 20 5 4 6 11 3 17
-4 7 -2 8 5 4 9 -6 9 -11 0 -22 -8 -10 -8 -14 0 -14 10 0 15 14 12 34 -1 5 6
17 15 27 14 16 15 22 5 32 -10 9 -11 9 -6 -4 4 -10 2 -20 -4 -23 -5 -4 -8 5
-7 21 4 33 24 85 25 62 1 -8 -4 -20 -10 -26 -7 -7 -6 -12 6 -17 9 -3 14 -2 11
2 -2 4 -1 14 4 22 5 8 5 21 0 30 -5 10 -4 22 2 31 8 11 9 11 4 -3 -3 -10 0
-20 7 -24 7 -4 9 -4 5 1 -4 4 -2 17 3 28 6 11 13 34 16 51 4 30 4 30 -12 11
-16 -19 -16 -19 -5 3 10 20 14 21 28 10 9 -7 13 -8 9 -2 -3 6 0 20 8 30 8 10
15 27 15 37 0 9 6 17 13 17 8 0 7 3 -3 10 -10 6 -17 4 -23 -6 -5 -9 -6 -18 -3
-21 8 -9 -13 -43 -27 -42 -9 0 -9 2 1 6 6 2 10 9 7 13 -5 9 41 110 50 110 2 0
7 -5 11 -12 4 -7 3 -8 -4 -4 -7 4 -12 2 -12 -4 0 -7 5 -10 11 -8 6 2 9 6 8 8
-1 3 12 31 30 63 17 31 29 57 25 57 -4 0 0 8 8 18 21 23 43 66 30 58 -22 -13
-21 28 2 70 13 25 26 39 28 33 2 -7 -4 -21 -14 -31 -24 -24 -23 -37 3 -31 16
4 17 8 7 14 -13 8 -3 13 17 9 6 -1 7 2 3 6 -4 4 1 19 11 33 18 25 18 57 1 46
-5 -3 -12 0 -16 6 -4 8 -3 9 4 5 11 -7 17 6 13 27 -1 5 3 6 9 2 5 -3 10 -2 10
3 0 6 7 13 16 16 10 4 13 2 7 -7 -4 -6 -8 -16 -8 -22 -1 -5 -6 -9 -13 -8 -6 2
-9 -4 -6 -12 9 -22 12 -19 34 29 12 24 30 53 41 65 11 11 15 21 10 21 -5 0
-18 3 -28 7 -14 5 -16 4 -7 -8 8 -10 7 -21 -2 -39 -8 -14 -14 -19 -14 -11 0
11 -3 11 -17 0 -11 -9 -10 -3 6 19 12 17 19 32 14 32 -4 0 0 7 11 15 10 7 15
18 11 24 -4 7 0 8 11 4 12 -4 15 -3 10 5 -5 8 -1 10 11 5 15 -6 16 -4 5 9 -9
11 -10 18 -2 23 6 3 8 11 5 16 -3 5 1 6 10 3 11 -5 14 -2 9 10 -4 9 0 18 9 22
9 3 19 19 22 35 7 30 20 36 45 18 12 -8 10 -9 -7 -4 -14 4 -23 2 -23 -5 0 -6
5 -8 12 -4 6 4 8 3 4 -4 -3 -6 -1 -14 6 -18 7 -4 10 -4 6 1 -5 5 1 15 12 22
11 8 18 18 15 23 -3 4 0 10 7 12 14 5 2 28 -15 28 -8 0 -8 -3 2 -9 9 -6 10
-11 2 -15 -6 -4 -8 -12 -5 -18 4 -7 2 -8 -4 -4 -6 4 -8 14 -5 24 6 15 5 16
-13 2 -18 -14 -18 -14 -1 6 9 11 15 23 12 25 -2 3 4 5 15 5 10 0 16 -4 14 -8
-3 -4 1 -8 9 -8 10 0 13 7 10 19 -3 13 -11 18 -21 14 -14 -4 -15 -3 -2 5 8 6
17 9 21 6 4 -2 16 9 25 26 10 16 23 30 28 30 5 0 1 -9 -9 -20 -10 -11 -14 -20
-9 -20 5 0 1 -5 -8 -11 -10 -5 -18 -15 -18 -21 0 -6 9 -3 20 7 11 10 18 20 16
23 -3 2 7 17 22 32 62 66 72 83 61 97 -6 7 -16 13 -21 13 -6 0 -5 -6 2 -15 16
-20 3 -40 -16 -24 -13 10 -14 8 -10 -14 3 -15 0 -27 -5 -27 -6 0 -7 -4 -4 -10
3 -5 1 -10 -4 -10 -6 0 -11 5 -11 11 0 5 -4 7 -10 4 -5 -3 -10 -1 -10 5 0 7 7
10 15 6 18 -7 20 5 3 23 -7 8 -8 12 -3 9 11 -5 46 28 43 40 -2 4 7 11 20 17
12 5 20 16 17 23 -3 8 0 10 7 6 8 -5 9 -2 5 9 -4 10 -2 16 6 14 7 -1 11 4 9
11 -1 6 4 11 10 10 7 -2 12 5 10 15 -3 18 20 20 46 4 15 -10 35 1 27 14 -4 5
-1 9 5 9 6 0 18 7 26 15 9 8 13 15 11 15 -3 0 -13 3 -21 6 -11 4 -15 2 -13 -7
2 -8 2 -11 0 -6 -7 11 -33 8 -33 -4 0 -5 4 -8 8 -5 4 2 8 -4 8 -15 0 -18 -2
-18 -12 -5 -6 9 -15 12 -19 8 -4 -4 -2 3 4 16 6 12 18 22 26 22 8 0 15 3 15 8
0 4 9 18 20 32 16 20 19 21 14 5 -4 -11 -4 -17 1 -13 4 4 17 3 28 -3 10 -6 17
-7 15 -2 -5 9 158 173 166 167 3 -2 4 -1 1 3 -3 3 7 14 21 24 16 10 22 19 15
23 -6 4 -14 0 -17 -8 -3 -9 -10 -14 -15 -11 -4 3 -16 -6 -25 -20 -9 -13 -21
-22 -27 -18 -5 3 -7 1 -4 -4 4 -6 -2 -18 -13 -28 -13 -11 -20 -14 -20 -6 0 7
-4 10 -9 6 -17 -10 -21 12 -6 25 14 11 19 7 16 -12 -1 -10 13 -10 22 -1 4 3 2
12 -5 20 -15 18 -2 29 17 13 9 -8 15 -8 15 -2 0 6 -5 14 -10 17 -6 4 -8 11 -4
16 4 6 11 6 19 -1 9 -8 15 -8 20 0 3 5 1 10 -4 10 -6 0 -11 5 -11 12 0 9 3 9
12 0 19 -19 30 -14 18 7 -8 16 -6 21 10 26 11 4 17 11 14 17 -4 7 -2 8 5 4 6
-4 9 -12 6 -17 -4 -5 -2 -9 3 -9 16 0 22 13 12 25 -6 7 -3 17 10 27 13 12 20
13 24 5 2 -7 5 -4 5 6 1 9 6 17 12 17 5 0 7 4 4 10 -3 6 1 7 9 4 10 -4 16 -1
16 7 0 14 112 109 129 109 5 0 11 7 15 15 3 8 13 15 21 15 9 0 13 5 9 11 -4 8
-1 8 14 0 12 -6 19 -17 16 -25 -6 -16 -52 -38 -64 -31 -12 7 -41 -6 -35 -16 3
-4 12 -6 19 -3 8 3 17 1 20 -5 4 -6 13 -4 25 7 10 9 27 23 39 31 11 8 18 19
15 23 -3 5 3 8 12 6 10 -2 20 2 22 9 3 8 -3 11 -17 8 -11 -2 -27 -2 -35 1 -18
7 42 61 63 56 9 -2 11 1 7 8 -6 9 -2 9 14 1 23 -13 27 -26 11 -36 -6 -3 -7 1
-4 9 3 9 2 16 -4 16 -13 0 -24 -29 -15 -42 4 -7 1 -8 -7 -3 -9 6 -11 4 -5 -4
5 -9 13 -7 31 10 13 12 24 19 24 15 0 -4 7 -1 15 7 8 8 30 25 50 37 19 12 35
25 35 29 0 10 -22 31 -34 31 -6 0 -5 -5 2 -12 7 -7 12 -16 12 -22 0 -5 -7 -1
-15 10 -14 18 -15 18 -9 0 6 -15 3 -17 -12 -12 -10 3 -32 -1 -49 -9 l-30 -15
24 20 c13 11 29 20 37 20 8 0 14 4 14 8 0 5 12 15 27 23 15 8 36 23 47 33 19
19 20 19 27 0 3 -10 5 -22 3 -25 -10 -17 27 -16 47 2 12 10 27 19 33 19 6 0 5
5 -3 13 -10 10 -14 8 -22 -6 -6 -9 -15 -14 -21 -11 -6 4 -8 2 -4 -4 3 -6 1
-14 -5 -18 -7 -4 -9 -3 -6 2 3 6 2 16 -3 24 -10 17 7 53 21 45 5 -4 9 -1 9 5
0 6 4 9 9 5 6 -3 14 3 20 12 6 10 11 12 11 6 0 -7 5 -13 11 -13 5 0 7 6 3 13
-5 8 -2 8 9 -2 20 -16 23 -2 5 19 -10 11 -9 11 6 0 18 -14 19 -13 12 5 -4 11
-4 16 0 12 4 -4 13 1 21 11 12 16 13 15 6 -3 l-6 -20 20 20 c11 11 18 23 16
28 -6 11 21 4 29 -7 3 -5 12 -11 20 -12 7 -2 23 -5 35 -8 13 -3 24 1 27 10 3
8 12 14 21 14 15 0 15 10 6 60 -1 3 -5 -2 -11 -10 -6 -9 -5 -20 3 -30 8 -10 5
-9 -9 3 -27 23 -42 22 -21 -1 22 -24 9 -37 -15 -15 -20 18 -25 5 -5 -17 10
-12 9 -12 -5 -1 -15 11 -22 52 -8 48 3 0 20 7 37 16 18 10 35 17 38 17 22 -1
25 2 19 13 -4 6 -4 9 0 5 5 -4 23 2 42 12 18 11 41 17 49 14 10 -4 14 -1 12 7
-2 8 -2 11 0 7 3 -5 9 -8 14 -8 6 0 7 5 4 10 -3 6 -1 10 4 10 6 0 11 -4 11
-10 0 -5 5 -9 11 -7 6 1 14 -5 16 -13 4 -13 3 -13 -7 0 -10 13 -11 12 -6 -5 5
-18 4 -18 -6 -4 -7 9 -19 14 -26 11 -10 -3 -8 -8 5 -19 10 -8 12 -11 5 -8 -7
4 -21 1 -30 -7 -9 -7 -32 -21 -49 -31 -30 -17 -37 -15 -34 6 0 4 -5 7 -12 7
-8 0 -14 -7 -14 -15 0 -8 4 -15 9 -15 5 0 6 -5 3 -10 -7 -11 16 -10 25 1 7 9
141 72 159 75 7 2 19 8 25 15 8 9 6 9 -12 0 -12 -7 -22 -8 -21 -4 4 14 -13 43
-21 38 -5 -3 -11 -1 -15 4 -3 6 6 8 21 5 16 -3 23 -1 19 6 -4 6 1 7 11 3 12
-4 15 -3 10 5 -5 8 -1 10 10 5 11 -4 15 -3 11 4 -5 7 1 9 15 5 14 -3 19 -1 14
6 -4 7 1 10 14 7 11 -2 20 1 20 6 0 6 4 8 9 5 5 -4 11 -3 14 1 2 5 3 3 1 -3
-1 -6 11 -11 27 -11 23 0 26 3 18 14 -6 7 -15 10 -20 7 -5 -3 -9 -1 -9 4 0 6
8 13 18 17 28 12 62 14 62 3 0 -5 -8 -7 -18 -4 -15 5 -18 0 -19 -29 -1 -33 11
-48 19 -25 2 6 13 12 25 13 12 0 19 5 16 10 -14 23 -9 58 9 68 11 6 22 8 25 5
4 -3 13 0 22 7 14 11 15 10 1 -7 -13 -18 -13 -19 1 -14 9 3 22 2 30 -3 12 -7
12 -10 0 -21 -9 -8 -11 -9 -7 -1 3 6 2 14 -3 17 -5 3 -11 0 -14 -8 -8 -20 20
-28 46 -14 12 7 25 11 29 10 15 -4 58 18 58 29 0 8 -4 8 -12 2 -7 -6 -21 -13
-30 -16 -13 -4 -16 -2 -12 11 4 12 -1 10 -15 -7 -12 -13 -21 -19 -21 -14 0 5
6 15 13 22 10 10 9 12 -3 11 -26 -4 -40 0 -40 9 0 5 8 8 18 7 9 -2 20 2 25 8
5 8 12 6 21 -6 7 -10 17 -14 21 -10 5 4 5 1 1 -5 -8 -14 6 -18 18 -6 4 4 -3
15 -15 24 -16 12 -19 18 -9 24 9 5 11 4 6 -3 -4 -7 -2 -12 3 -12 6 0 11 4 11
8 0 5 6 9 13 9 6 0 20 4 31 8 16 7 17 5 11 -16 -8 -24 -8 -24 14 -5 17 15 19
22 9 29 -9 6 -8 7 4 3 10 -3 20 -1 23 4 3 5 13 6 22 3 10 -4 14 -2 10 4 -3 5
0 10 7 10 11 0 12 -4 3 -20 -9 -15 -9 -21 0 -24 7 -2 9 -12 6 -21 -3 -11 -2
-13 4 -6 4 6 15 11 23 12 14 0 25 3 83 18 12 3 30 6 40 6 9 -1 17 3 17 7 0 4
15 8 33 9 54 3 69 8 79 27 7 12 7 16 0 11 -6 -3 -13 0 -16 6 -3 7 -3 2 0 -12
4 -19 3 -22 -5 -10 -6 8 -8 24 -4 35 5 17 4 18 -10 6 -18 -14 -18 -31 -2 -44
6 -5 3 -7 -7 -3 -10 3 -20 1 -23 -4 -11 -17 -24 -11 -40 19 -13 27 -13 29 3
26 9 -1 20 3 24 9 5 8 8 7 8 -1 0 -7 5 -13 11 -13 5 0 7 5 4 10 -4 6 -3 10 2
9 4 -1 10 0 13 1 22 8 47 7 59 -3 12 -10 14 -9 9 5 -5 11 -2 15 10 13 9 -1 29
1 44 6 20 5 31 3 42 -10 21 -23 20 -31 -4 -31 -13 0 -18 -5 -14 -15 4 -8 11
-12 17 -8 5 3 22 8 36 10 40 6 75 11 89 12 6 1 12 6 12 12 0 5 -4 7 -10 4 -5
-3 -7 0 -4 8 3 8 -2 14 -11 14 -11 0 -13 -6 -9 -21 6 -19 4 -18 -14 4 -12 14
-21 20 -22 14 0 -5 6 -16 13 -24 10 -12 9 -12 -5 -1 -15 11 -18 11 -18 0 0
-11 -2 -11 -10 1 -9 13 -10 13 -10 0 -1 -8 -6 -4 -11 10 -14 34 -13 35 19 35
15 0 33 4 40 8 7 5 15 2 19 -9 6 -16 7 -16 14 2 7 17 8 17 8 1 1 -10 6 -15 11
-12 6 4 8 10 5 15 -3 5 4 7 15 5 11 -2 20 2 20 8 0 7 4 6 10 -3 7 -11 12 -12
18 -3 5 8 13 2 25 -19 14 -25 15 -29 2 -18 -8 7 -15 8 -15 3 0 -5 -14 -9 -32
-8 -17 0 -33 -5 -35 -10 -2 -6 8 -11 22 -11 14 0 25 5 25 11 0 5 5 3 10 -5 5
-8 10 -10 10 -5 0 6 19 10 43 10 23 -1 45 3 49 9 4 6 12 5 22 -3 14 -12 16
-11 13 10 -2 14 -12 25 -23 27 -14 2 -16 1 -6 -6 11 -7 11 -10 -3 -15 -9 -4
-13 -3 -10 3 9 15 -12 12 -28 -4 -11 -12 -15 -11 -27 8 -12 20 -12 20 5 6 17
-13 18 -13 13 1 -3 9 -2 22 3 30 5 8 9 10 9 4 0 -5 11 -11 25 -11 14 -1 23 1
20 5 -2 4 2 8 9 8 8 0 12 -6 10 -12 -3 -6 2 -12 11 -12 9 0 14 6 11 14 -3 8
-1 11 4 8 6 -3 10 0 10 7 0 10 2 10 9 0 4 -8 12 -14 16 -14z m-150 2 c-3 -5
-12 -10 -18 -10 -7 0 -6 4 3 10 19 12 23 12 15 0z m967 -43 c-2 -11 2 -15 13
-11 8 3 12 11 8 17 -3 6 -1 7 5 3 6 -4 9 -13 6 -21 -4 -8 -10 -12 -15 -9 -5 3
-9 0 -9 -5 0 -6 5 -11 12 -11 6 0 8 -3 4 -7 -4 -5 -14 1 -22 12 -17 22 -22 23
-36 3 -8 -10 -9 -10 -5 2 2 8 10 14 16 13 16 -4 13 8 -5 22 -15 10 -14 12 7
10 16 -1 23 -7 21 -18z m-1472 -49 c0 -4 0 -11 -1 -14 0 -4 5 -10 11 -14 9 -5
9 -9 1 -14 -6 -4 -11 -1 -11 6 0 9 -3 9 -10 -2 -6 -9 -10 -10 -10 -3 0 6 5 15
11 19 12 7 -6 24 -26 24 -5 0 -4 -4 4 -9 9 -6 10 -11 2 -15 -6 -4 -9 -11 -6
-16 3 -4 -2 -11 -10 -14 -13 -4 -13 -2 -5 14 15 28 12 32 -8 13 -10 -10 -17
-25 -14 -33 3 -13 2 -13 -6 -1 -7 9 -7 21 -2 32 5 9 6 19 2 23 -3 4 1 4 10 1
9 -4 19 -2 22 4 7 11 46 11 46 -1z m-98 -30 c-12 -12 -32 -2 -31 15 0 9 2 9 6
0 7 -19 23 -16 24 5 0 11 2 13 6 4 3 -8 1 -18 -5 -24z m2035 -4 c-3 -3 -12 -4
-19 -1 -8 3 -5 6 6 6 11 1 17 -2 13 -5z m-2037 -25 c0 -4 -5 -11 -12 -15 -7
-5 -8 -3 -3 6 6 10 4 12 -8 7 -16 -6 -31 5 -21 16 7 7 44 -4 44 -14z m2040 1
c0 -5 -4 -10 -10 -10 -5 0 -10 5 -10 10 0 6 5 10 10 10 6 0 10 -4 10 -10z
m-2440 -120 c0 -5 -4 -10 -10 -10 -5 0 -10 5 -10 10 0 6 5 10 10 10 6 0 10 -4
10 -10z m2921 -42 c0 -10 2 -10 5 -1 3 7 13 9 21 6 14 -6 14 -7 -3 -13 -22 -8
-44 -2 -44 11 0 14 20 11 21 -3z m-6 -36 c-3 -3 -11 0 -18 7 -9 10 -8 11 6 5
10 -3 15 -9 12 -12z m508 -232 c-3 -12 0 -20 6 -20 7 0 10 4 7 8 -2 4 4 8 14
9 11 1 22 -3 25 -8 4 -5 11 -6 17 -3 6 4 6 -2 -1 -15 -7 -11 -17 -21 -24 -20
-9 0 -9 2 1 6 19 7 14 19 -8 20 -12 1 -18 -3 -14 -9 4 -6 -2 -6 -15 1 -11 7
-21 16 -21 22 0 6 -4 8 -8 5 -5 -3 -9 1 -9 8 0 8 7 12 15 8 11 -4 13 -1 7 8
-5 8 -4 11 3 7 5 -4 8 -16 5 -27z m-4270 -129 c20 9 21 9 4 -4 -10 -8 -28 -13
-40 -10 -16 3 -18 2 -8 -5 8 -6 9 -12 3 -16 -5 -3 -12 1 -16 9 -3 8 2 19 12
24 10 6 18 6 20 0 2 -5 12 -5 25 2z m-623 -482 c0 -5 5 -7 11 -3 6 3 3 -8 -5
-25 -19 -36 -31 -39 -45 -12 -13 24 -4 33 20 20 21 -11 25 1 7 19 -9 9 -9 12
0 12 7 0 12 -5 12 -11z m-45 -69 c4 -19 2 -20 -12 -8 -15 11 -16 11 -10 -4 9
-25 0 -22 -14 3 -6 12 -7 19 -1 15 5 -3 13 1 16 10 8 20 15 15 21 -16z m5845
-51 c0 -4 -5 -11 -10 -14 -11 -7 -31 35 -22 49 5 9 32 -21 32 -35z m-6172
-308 c-7 -12 -16 -21 -21 -21 -4 0 0 11 10 24 22 29 30 27 11 -3z m6427 -1
c-3 -5 -1 -10 6 -10 7 0 10 -2 7 -5 -3 -3 -13 -2 -22 1 -14 5 -15 9 -4 15 17
11 20 11 13 -1z m195 -293 c0 -4 -6 -2 -14 5 -8 7 -12 17 -9 22 5 8 23 -12 23
-27z m45 -67 c3 -6 -1 -7 -9 -4 -18 7 -21 14 -7 14 6 0 13 -4 16 -10z m32 -55
c16 -25 18 -36 10 -41 -7 -4 -9 -4 -5 1 4 4 -4 23 -19 41 -14 19 -21 34 -17
34 5 -1 19 -16 31 -35z m-6972 -47 c5 4 5 1 1 -5 -10 -18 -23 -16 -30 3 -5 13
-4 14 7 6 8 -7 18 -8 22 -4z m-75 -149 c0 -5 -7 -9 -15 -9 -15 0 -20 12 -9 23
8 8 24 -1 24 -14z m7150 1 c6 -11 8 -20 6 -20 -3 0 -10 9 -16 20 -6 11 -8 20
-6 20 3 0 10 -9 16 -20z m-7166 -28 c-5 -4 -12 -11 -15 -15 -3 -5 -9 -2 -12 5
-3 9 3 14 15 15 11 1 16 -1 12 -5z m-24 -42 c-6 -4 -11 -11 -10 -16 1 -5 -3
-10 -9 -12 -6 -2 -11 3 -11 12 0 9 5 16 11 16 5 0 7 4 4 10 -3 6 1 7 10 3 12
-4 13 -8 5 -13z m-35 -62 c-3 -8 -13 -15 -22 -15 -14 0 -13 2 2 13 10 8 14 18
10 26 -6 10 -5 10 4 2 6 -6 9 -17 6 -26z m-95 -228 c0 -5 -5 -10 -11 -10 -5 0
-7 5 -4 10 3 6 8 10 11 10 2 0 4 -4 4 -10z m-143 -442 c-3 -8 -6 -5 -6 6 -1
11 2 17 5 13 3 -3 4 -12 1 -19z m10126 -2313 c-3 -9 -8 -14 -10 -11 -3 3 -2 9
2 15 9 16 15 13 8 -4z m-101 -401 c-9 -16 -10 -14 -9 8 1 15 6 23 11 18 4 -4
4 -16 -2 -26z m-132 -414 c-6 -11 -8 -20 -4 -20 3 0 1 -6 -5 -13 -6 -8 -7 -18
-3 -22 4 -5 1 -5 -5 -1 -8 4 -13 2 -13 -5 0 -7 -3 -9 -7 -6 -3 4 2 16 12 27
10 11 15 20 11 20 -4 0 -2 9 4 20 6 11 13 20 16 20 2 0 0 -9 -6 -20z m-157
-392 c-10 -11 -16 -22 -15 -25 2 -3 1 -7 -2 -10 -3 -3 -3 5 -1 18 3 13 9 25
15 27 6 2 7 9 4 14 -5 7 -2 8 5 4 9 -6 8 -13 -6 -28z m-26 -69 c-6 -10 -15
-19 -19 -19 -5 0 -8 -5 -8 -11 0 -5 5 -7 12 -3 7 5 8 3 3 -5 -5 -9 -10 -10
-18 -2 -7 7 -5 16 7 30 10 11 15 24 11 30 -3 7 0 8 9 5 12 -5 13 -9 3 -25z
m-118 -271 c-10 -20 -29 -42 -42 -48 -20 -10 -21 -10 -4 3 10 8 14 17 10 19
-4 3 -2 3 5 2 13 -4 17 12 5 19 -5 2 -2 2 5 1 13 -4 17 12 5 19 -5 2 -3 2 4 1
6 -2 14 4 17 13 5 11 2 14 -10 9 -14 -5 -15 -4 -4 9 24 28 30 -6 9 -47z
m-11389 -38 c0 -5 -2 -10 -4 -10 -3 0 -8 5 -11 10 -3 6 -1 10 4 10 6 0 11 -4
11 -10z m11300 -100 c0 -5 -5 -10 -11 -10 -5 0 -7 5 -4 10 3 6 8 10 11 10 2 0
4 -4 4 -10z m-11220 -41 c0 -5 -4 -9 -8 -9 -5 0 -9 7 -9 15 0 8 4 12 9 9 4 -3
8 -9 8 -15z m11194 -27 c-11 -10 -19 -23 -17 -29 2 -6 -5 -14 -16 -18 -12 -3
-21 -11 -21 -16 0 -6 6 -7 13 -3 9 6 9 5 0 -8 -7 -8 -9 -19 -5 -24 4 -5 3 -6
-2 -2 -5 4 -17 3 -28 -3 -15 -8 -17 -14 -8 -24 14 -16 -1 -27 -20 -14 -11 6
-12 9 -2 9 7 0 11 3 8 8 -5 8 18 42 31 45 4 1 7 8 5 15 -2 7 4 15 12 18 9 3
14 9 12 13 -6 9 5 23 29 38 29 17 33 15 9 -5z m-11166 -37 c-3 -3 -9 2 -12 12
-6 14 -5 15 5 6 7 -7 10 -15 7 -18z m11023 -192 c13 -16 12 -17 -3 -4 -10 7
-18 15 -18 17 0 8 8 3 21 -13z m-10888 -40 c-5 -12 -3 -14 7 -8 9 6 11 4 5 -5
-6 -10 -11 -9 -21 5 -14 19 -9 39 6 30 5 -3 6 -13 3 -22z m194 -294 c2 -24 0
-23 -16 8 -9 18 -9 22 2 18 7 -3 13 -15 14 -26z m10458 -29 c-3 -5 -1 -10 6
-10 17 0 -9 -28 -43 -46 -15 -8 -28 -19 -28 -25 0 -6 4 -7 10 -4 6 3 7 -1 3
-10 -4 -11 -8 -13 -13 -5 -5 8 -10 7 -19 -4 -7 -8 -9 -21 -5 -27 5 -8 3 -9 -6
-4 -10 6 -12 4 -7 -9 4 -11 3 -15 -4 -11 -6 4 -9 -1 -7 -11 2 -11 -3 -20 -12
-20 -8 -1 -21 -2 -28 -3 -7 0 -10 -6 -7 -11 4 -6 11 -7 17 -4 25 16 -25 -51
-56 -76 -15 -11 -18 -12 -12 -1 6 9 5 12 -4 9 -7 -2 -14 -12 -16 -22 -2 -12 2
-16 12 -12 21 8 17 -2 -6 -14 -13 -7 -26 -7 -37 -2 -14 9 -14 10 6 17 11 3 19
10 16 15 -3 5 5 16 17 25 13 8 22 19 20 22 -2 4 1 9 7 11 6 2 11 -1 11 -8 0
-6 5 -8 10 -5 6 4 7 13 1 23 -10 19 10 57 23 45 4 -4 9 3 13 15 3 12 10 19 16
15 6 -4 8 0 4 11 -4 9 -3 14 2 11 5 -3 12 4 16 15 3 11 11 20 16 20 6 0 8 4 5
9 -3 5 1 12 10 15 8 3 12 10 9 16 -4 6 1 7 12 3 16 -6 17 -5 3 13 -11 15 -11
16 0 7 22 -20 32 -15 19 8 -7 13 -7 19 -1 15 6 -3 13 -2 17 4 3 5 8 10 11 10
3 0 2 -4 -1 -10z m-10411 -35 c-4 -8 -11 -12 -16 -9 -6 4 -5 10 3 15 19 12 19
11 13 -6z m212 -263 c-3 -3 2 -11 12 -18 9 -7 13 -13 7 -13 -5 -1 -21 8 -35
19 -18 15 -20 18 -6 13 14 -5 17 -3 11 7 -6 9 -4 11 4 6 7 -5 10 -10 7 -14z
m9939 -43 c4 -5 -1 -19 -11 -30 -13 -15 -19 -16 -26 -7 -4 7 -8 11 -9 8 0 -3
-2 -16 -5 -29 -4 -21 -3 -22 13 -10 16 13 17 12 4 -3 -10 -14 -18 -15 -32 -7
-18 9 -18 12 13 49 35 42 43 46 53 29z m-9902 -6 c-10 -3 -10 -7 0 -18 7 -7
15 -11 20 -8 4 2 7 2 7 -1 0 -16 -20 -12 -38 7 l-22 23 23 1 c12 0 17 -1 10
-4z m497 -527 c0 -2 -6 -9 -14 -15 -11 -9 -16 -9 -22 0 -4 7 -3 9 4 5 6 -3 13
-2 17 4 6 10 15 14 15 6z m18 -28 c-2 -7 4 -12 12 -10 12 3 13 1 2 -10 -11
-11 -14 -10 -22 2 -13 19 -12 30 0 30 6 0 9 -6 8 -12z m412 -358 c0 -5 -5 -10
-11 -10 -5 0 -7 5 -4 10 3 6 8 10 11 10 2 0 4 -4 4 -10z m445 -352 c-6 -21 -5
-22 8 -6 8 10 17 15 20 11 11 -10 8 -25 -3 -18 -5 3 -10 1 -10 -5 0 -7 -6 -10
-12 -8 -15 5 -20 48 -6 48 5 0 7 -10 3 -22z m195 -110 c0 -13 -18 -9 -24 5 -3
6 -3 1 0 -13 4 -14 3 -22 -1 -18 -4 4 -9 19 -10 32 -3 22 -1 24 16 13 10 -6
19 -15 19 -19z m42 -27 c10 -16 15 -18 28 -8 8 6 12 8 8 3 -4 -5 -3 -16 2 -25
10 -20 -3 -50 -14 -32 -4 6 -1 11 6 11 7 0 -3 11 -22 24 -20 14 -38 20 -41 14
-3 -5 -9 -2 -12 7 -4 9 -3 13 3 10 6 -3 10 -1 10 4 0 18 19 12 32 -8z m503
-311 c-3 -5 1 -11 7 -13 10 -4 10 -6 0 -6 -7 -1 -15 6 -18 14 -4 8 -11 12 -17
8 -6 -3 -7 -1 -3 5 4 6 13 9 21 6 8 -4 13 -10 10 -14z m4165 -485 c0 6 4 4 9
-4 5 -8 7 -20 4 -27 -5 -13 -33 -28 -32 -16 3 19 -2 25 -11 12 -9 -13 -11 -13
-19 -1 -12 19 -2 43 15 37 8 -3 14 0 14 7 0 8 4 6 10 -3 5 -8 10 -10 10 -5z
m-74 -10 c-11 -8 -15 -15 -9 -15 22 0 22 -30 0 -40 -19 -10 -20 -9 -6 2 15 12
15 15 1 27 -13 13 -13 16 4 28 10 7 20 13 23 13 3 0 -3 -7 -13 -15z m-1036
-139 c0 -3 -4 -8 -10 -11 -5 -3 -10 -1 -10 4 0 6 5 11 10 11 6 0 10 -2 10 -4z"/>
<path d="M6474 10455 c20 -15 20 -15 0 -16 -10 -1 -25 -1 -32 0 -8 1 -19 -2
-26 -8 -17 -14 -51 -6 -48 11 1 8 -4 15 -11 15 -8 0 -14 -12 -14 -28 0 -24 3
-26 24 -18 13 5 23 5 23 0 0 -10 49 -6 58 5 4 4 -2 4 -13 0 -17 -6 -18 -5 -7
6 11 11 16 10 28 -6 13 -18 19 -15 15 7 -1 4 8 3 19 -3 11 -6 24 -8 29 -5 5 3
12 0 14 -5 3 -6 4 -5 3 2 -2 7 6 23 17 35 19 22 19 22 -1 20 -12 0 -18 -6 -15
-14 7 -17 -11 -16 -50 2 -29 14 -30 14 -13 0z m36 -25 c0 -5 -2 -10 -4 -10 -3
0 -8 5 -11 10 -3 6 -1 10 4 10 6 0 11 -4 11 -10z"/>
<path d="M6606 10458 c3 -4 -1 -8 -8 -8 -8 0 -6 -5 5 -11 13 -8 22 -7 32 1 12
10 17 7 26 -13 6 -14 17 -23 25 -20 17 6 6 33 -13 33 -9 0 -13 6 -9 15 7 19
-15 15 -31 -5 -12 -13 -12 -13 -8 1 4 10 0 16 -9 16 -8 0 -13 -4 -10 -9z"/>
<path d="M6720 10460 c-8 -6 -10 -10 -5 -10 6 0 4 -4 -3 -8 -21 -14 -3 -38 28
-38 36 0 38 6 9 25 -19 11 -21 11 -16 -3 4 -10 1 -13 -8 -10 -11 5 -12 10 -3
24 11 17 13 17 24 2 12 -16 13 -16 20 1 9 25 26 0 18 -27 -4 -12 -2 -16 5 -11
7 4 18 2 26 -5 9 -8 15 -8 20 0 3 6 12 7 18 3 17 -11 57 -12 57 -1 0 4 5 8 11
8 5 0 7 -6 3 -12 -4 -7 -4 -10 1 -6 4 4 15 2 23 -5 13 -10 14 -9 8 2 -5 8 -3
17 5 23 11 7 9 8 -5 4 -16 -6 -17 -4 -6 9 13 16 11 17 -35 17 -37 0 -38 -1
-26 -16 9 -11 9 -16 0 -22 -8 -4 -9 -3 -5 4 4 7 2 12 -3 12 -6 0 -11 -5 -11
-12 0 -6 -6 -3 -14 7 -8 11 -12 24 -9 30 3 5 0 5 -7 -2 -15 -14 -43 -6 -33 11
3 6 3 8 -2 4 -4 -4 -14 -3 -21 3 -8 7 -14 7 -19 -1 -5 -7 -11 -8 -19 -1 -7 6
-17 6 -26 1z m215 -30 c-3 -5 -12 -10 -18 -10 -7 0 -6 4 3 10 19 12 23 12 15
0z m-102 -17 c-3 -7 -6 -13 -8 -13 -2 0 -5 6 -8 13 -3 8 1 14 8 14 7 0 11 -6
8 -14z"/>
<path d="M6296 10444 c-3 -8 -10 -13 -15 -10 -11 7 -8 -20 4 -31 4 -4 6 -3 3
2 -3 6 0 16 8 23 8 7 14 8 14 2 0 -5 7 -10 15 -10 16 0 19 9 7 25 -11 16 -30
16 -36 -1z"/>
<path d="M6377 10447 c-3 -8 3 -14 15 -14 16 -2 17 1 8 13 -15 17 -17 17 -23
1z"/>
<path d="M6196 10438 c3 -4 11 -5 19 -1 21 7 19 12 -4 10 -11 0 -18 -5 -15 -9z"/>
<path d="M6005 10430 c-3 -5 -1 -10 4 -10 6 0 11 5 11 10 0 6 -2 10 -4 10 -3
0 -8 -4 -11 -10z"/>
<path d="M6072 10428 c-16 -16 -16 -31 1 -21 12 7 17 9 50 11 23 3 22 18 -2
18 -11 0 -17 -4 -15 -8 3 -4 1 -8 -5 -8 -5 0 -11 5 -13 10 -2 7 -8 6 -16 -2z"/>
<path d="M7026 10432 c-7 -12 12 -38 21 -28 4 5 2 11 -5 13 -6 3 -10 9 -6 14
3 5 3 9 0 9 -3 0 -7 -4 -10 -8z"/>
<path d="M5940 10423 c0 -1 9 -7 19 -12 14 -8 20 -7 24 2 3 8 -4 13 -19 13
-13 0 -24 -1 -24 -3z"/>
<path d="M7065 10419 c-9 -14 -2 -20 14 -10 8 6 9 11 3 15 -6 3 -14 1 -17 -5z"/>
<path d="M5900 10412 c0 -5 -13 -8 -30 -7 -16 1 -27 -2 -25 -6 8 -12 -22 -18
-34 -6 -6 6 -14 7 -18 3 -10 -9 18 -27 34 -21 7 2 12 -1 10 -8 -1 -7 11 -12
31 -12 17 -1 31 4 31 9 -3 27 2 35 19 29 15 -6 15 -5 3 10 -15 19 -21 21 -21
9z m-19 -39 c-8 -14 -10 -14 -11 -3 0 13 -1 13 -11 0 -9 -13 -10 -13 -6 0 2 8
10 14 16 13 6 -2 11 2 11 9 0 6 3 9 6 5 3 -3 1 -14 -5 -24z"/>
<path d="M6300 10410 c0 -6 7 -10 15 -10 8 0 15 2 15 4 0 2 -7 6 -15 10 -8 3
-15 1 -15 -4z"/>
<path d="M7312 10360 c-2 -22 2 -28 20 -28 13 0 28 -1 33 -2 28 -6 44 1 39 18
-5 14 -4 14 5 2 5 -8 13 -11 18 -7 4 5 1 12 -7 17 -11 7 -20 3 -31 -12 -12
-16 -18 -18 -24 -8 -5 9 -4 11 3 6 17 -10 15 9 -2 23 -8 7 -22 13 -33 15 -15
3 -19 -2 -21 -24z m41 -5 c-3 -9 -8 -14 -10 -11 -3 3 -2 9 2 15 9 16 15 13 8
-4z"/>
<path d="M5701 10375 c0 -5 4 -17 9 -25 8 -13 11 -13 25 1 15 15 15 17 0 23
-9 3 -13 2 -10 -4 3 -6 2 -10 -4 -10 -5 0 -12 6 -14 13 -3 6 -6 8 -6 2z"/>
<path d="M5810 10350 c0 -5 5 -10 10 -10 6 0 10 5 10 10 0 6 -4 10 -10 10 -5
0 -10 -4 -10 -10z"/>
<path d="M5453 10297 c-24 -28 -33 -32 -37 -20 -3 8 -4 19 0 24 3 5 -6 4 -20
-2 -24 -11 -24 -13 -8 -34 13 -17 21 -21 35 -14 9 6 17 7 17 3 0 -3 6 -2 13 4
13 11 17 12 42 12 18 0 19 20 2 44 -12 17 -15 16 -44 -17z m24 -12 c0 -8 -3
-13 -5 -10 -3 3 -12 -1 -20 -8 -13 -11 -14 -9 -1 11 16 26 26 28 26 7z m-69
-20 c-3 -3 -9 2 -12 12 -6 14 -5 15 5 6 7 -7 10 -15 7 -18z"/>
<path d="M7410 10318 c0 -5 5 -6 10 -3 6 3 10 2 10 -3 0 -13 28 -11 34 3 2 7
-7 12 -25 12 -16 0 -29 -4 -29 -9z"/>
<path d="M7556 10317 c3 -10 9 -15 12 -12 3 3 0 11 -7 18 -10 9 -11 8 -5 -6z"/>
<path d="M7676 10293 c-6 -7 12 -33 24 -33 3 0 7 7 7 15 0 15 -21 28 -31 18z"/>
<path d="M7610 10270 c0 -5 5 -10 10 -10 6 0 10 5 10 10 0 6 -4 10 -10 10 -5
0 -10 -4 -10 -10z"/>
<path d="M7758 10260 c20 -20 25 -19 17 2 -3 8 -12 15 -20 15 -12 0 -11 -4 3
-17z"/>
<path d="M5207 10242 c-14 -3 -16 -7 -6 -18 9 -11 8 -14 -2 -14 -10 0 -9 -4 3
-17 13 -13 20 -14 31 -5 8 7 18 8 22 4 5 -4 5 -1 1 6 -5 7 -17 10 -29 7 -21
-6 -21 -5 1 8 18 11 21 16 10 23 -7 6 -21 9 -31 6z m23 -12 c0 -5 -5 -10 -11
-10 -5 0 -7 5 -4 10 3 6 8 10 11 10 2 0 4 -4 4 -10z"/>
<path d="M7825 10233 c20 -19 82 -26 92 -10 3 7 3 9 -2 5 -4 -4 -16 -3 -27 3
-11 6 -33 12 -49 14 -27 4 -28 3 -14 -12z m40 -3 c3 -5 1 -10 -4 -10 -6 0 -11
5 -11 10 0 6 2 10 4 10 3 0 8 -4 11 -10z"/>
<path d="M7950 10192 c0 -5 7 -9 15 -9 8 0 12 4 9 9 -3 4 -9 8 -15 8 -5 0 -9
-4 -9 -8z"/>
<path d="M5023 10153 c-3 -7 -9 -10 -14 -8 -13 9 -71 -24 -63 -36 3 -6 12 -8
19 -5 7 2 17 0 22 -5 7 -7 12 -3 16 11 5 18 2 20 -16 14 -12 -3 -18 -3 -14 2
4 4 20 8 35 9 15 0 26 5 25 11 -1 6 4 11 12 11 8 0 11 -5 8 -10 -4 -6 1 -8 11
-4 11 4 15 3 11 -4 -4 -6 -12 -8 -19 -6 -16 7 -50 -19 -37 -28 6 -3 11 -1 11
4 0 6 6 11 14 11 19 0 71 28 69 37 -3 14 -85 10 -90 -4z"/>
<path d="M7990 10145 c0 -9 6 -12 15 -9 8 4 15 10 15 15 0 5 -7 9 -15 9 -8 0
-15 -7 -15 -15z"/>
<path d="M8026 10144 c-8 -21 -8 -24 5 -24 5 0 7 5 4 10 -3 6 -1 10 4 10 6 0
11 5 11 10 0 16 -17 12 -24 -6z"/>
<path d="M8173 10105 c0 -14 10 -19 30 -16 5 1 6 -3 2 -8 -3 -6 -12 -8 -20 -4
-8 3 -15 0 -15 -6 0 -14 32 -14 48 -1 9 7 9 7 2 -2 -14 -17 -12 -28 6 -28 8 0
12 5 8 11 -3 6 -1 15 5 19 8 4 2 11 -18 20 -17 7 -31 16 -31 21 0 5 -4 9 -8 9
-5 0 -9 -7 -9 -15z"/>
<path d="M4823 10078 c-4 -7 -15 -13 -23 -13 -8 0 -15 -10 -16 -22 -1 -19 2
-21 17 -12 11 5 19 14 19 20 0 6 5 7 10 4 6 -4 18 -1 26 6 12 10 12 14 2 20
-18 12 -26 11 -35 -3z m27 -2 c0 -3 -4 -8 -10 -11 -5 -3 -10 -1 -10 4 0 6 5
11 10 11 6 0 10 -2 10 -4z"/>
<path d="M4680 10006 c0 -2 8 -10 18 -17 15 -13 16 -12 3 4 -13 16 -21 21 -21
13z"/>
<path d="M8430 9980 c0 -5 5 -10 11 -10 5 0 7 5 4 10 -3 6 -8 10 -11 10 -2 0
-4 -4 -4 -10z"/>
<path d="M4605 9959 c-4 -6 -4 -13 -1 -16 3 -4 -1 -15 -11 -25 -14 -16 -14
-18 -1 -18 17 0 32 26 23 40 -3 5 0 12 6 16 7 4 9 3 6 -2 -12 -20 7 -33 26
-19 12 8 14 15 8 20 -6 3 -11 0 -11 -7 0 -8 -5 -6 -11 5 -11 19 -25 22 -34 6z"/>
<path d="M4549 9905 c-6 -16 -13 -24 -16 -17 -7 18 -23 4 -17 -16 3 -9 -1 -7
-8 6 l-14 22 -22 -20 c-14 -13 -22 -16 -22 -8 0 9 -3 9 -10 -2 -13 -20 11 -33
25 -13 9 12 16 13 32 5 16 -9 24 -7 40 8 12 10 24 16 28 12 5 -4 5 3 2 16 -3
12 -2 20 3 17 4 -3 13 2 20 10 9 11 8 14 -9 12 -13 -1 -25 -12 -32 -32z"/>
<path d="M4368 9820 c-15 -17 -15 -19 3 -36 17 -15 19 -15 19 -1 0 11 5 14 17
10 11 -4 14 -3 9 6 -5 7 -14 10 -22 7 -8 -3 -14 -1 -14 4 0 6 7 10 16 10 8 0
12 5 9 10 -9 14 -17 11 -37 -10z"/>
<path d="M8676 9832 c-3 -6 1 -13 10 -16 23 -9 28 -2 10 13 -8 7 -17 8 -20 3z"/>
<path d="M8750 9791 c0 -6 4 -13 10 -16 6 -3 7 1 4 9 -7 18 -14 21 -14 7z"/>
<path d="M4181 9696 l-21 -23 21 2 c12 1 25 9 30 18 15 26 -6 28 -30 3z"/>
<path d="M8850 9710 c0 -5 5 -10 10 -10 6 0 10 5 10 10 0 6 -4 10 -10 10 -5 0
-10 -4 -10 -10z"/>
<path d="M8925 9663 c3 -7 1 -13 -4 -13 -19 0 -12 -22 8 -27 11 -3 22 -12 25
-20 3 -8 10 -12 15 -9 5 3 12 -1 15 -10 4 -10 12 -14 22 -10 11 4 15 2 11 -7
-4 -12 35 -47 40 -36 1 2 16 -13 34 -33 31 -38 49 -47 49 -28 0 6 -6 9 -12 8
-7 -2 -13 7 -13 18 0 24 -33 66 -46 59 -4 -3 -12 3 -18 12 -6 10 -11 14 -11 9
0 -5 -7 -3 -15 4 -8 7 -13 16 -10 20 2 3 -10 6 -27 5 -27 -2 -29 0 -14 10 15
11 15 13 1 19 -9 3 -13 2 -10 -4 3 -6 1 -10 -4 -10 -6 0 -11 4 -11 8 0 5 -7
17 -16 28 -8 10 -13 13 -9 7z m130 -113 c3 -6 -1 -7 -9 -4 -18 7 -21 14 -7 14
6 0 13 -4 16 -10z m35 -21 c0 -6 -4 -7 -10 -4 -5 3 -10 11 -10 16 0 6 5 7 10
4 6 -3 10 -11 10 -16z"/>
<path d="M4115 9640 c-11 -5 -15 -9 -10 -9 6 -1 3 -6 -5 -11 -8 -5 -10 -10 -4
-10 6 0 21 9 34 20 24 21 19 25 -15 10z"/>
<path d="M4007 9557 c-20 -19 -39 -32 -42 -29 -3 3 -5 0 -5 -6 0 -6 5 -14 10
-17 6 -3 10 -2 10 3 0 5 7 9 15 9 18 0 20 -17 3 -18 -47 -3 -63 -8 -75 -25 -7
-10 -11 -25 -8 -33 3 -9 3 -12 -1 -8 -4 4 -20 -5 -36 -20 -15 -15 -28 -21 -28
-15 0 7 -4 12 -10 12 -22 0 -8 -26 15 -28 17 -1 25 3 25 14 0 8 5 12 10 9 6
-3 10 -2 10 4 0 5 9 13 21 16 17 6 18 9 7 23 -11 13 -11 14 0 8 14 -8 92 39
92 55 0 5 6 9 14 9 9 0 14 9 13 20 -1 14 -6 19 -17 15 -11 -5 -12 -3 -3 6 13
13 36 3 27 -13 -4 -6 2 -6 15 1 25 14 29 36 4 27 -9 -4 -19 -2 -23 4 -5 7 -20
-1 -43 -23z m23 -22 c0 -12 -19 -12 -23 0 -4 9 -1 12 9 8 7 -3 14 -7 14 -8z"/>
<path d="M9157 9473 c-11 -10 -8 -33 4 -33 5 0 7 4 4 10 -4 6 1 7 12 3 16 -6
16 -5 4 10 -15 19 -15 19 -24 10z"/>
<path d="M3881 9451 c-8 -6 -9 -11 -3 -15 6 -3 14 -1 17 5 9 14 2 20 -14 10z"/>
<path d="M9170 9435 c0 -2 12 -16 26 -30 21 -21 29 -24 41 -14 12 11 10 15
-19 30 -34 18 -48 23 -48 14z m55 -33 c-3 -3 -11 0 -18 7 -9 10 -8 11 6 5 10
-3 15 -9 12 -12z"/>
<path d="M9377 9246 c-7 -18 16 -38 48 -42 29 -3 25 7 -14 35 -24 17 -30 18
-34 7z m33 -21 c11 -13 10 -14 -4 -9 -9 3 -16 10 -16 15 0 13 6 11 20 -6z"/>
<path d="M3584 9148 c-6 -9 -5 -10 23 -13 13 -1 20 2 17 10 -6 13 -32 16 -40
3z"/>
<path d="M3505 9060 c2 -4 -4 -15 -15 -25 -16 -14 -17 -20 -8 -27 9 -5 8 -8
-5 -8 -10 0 -16 -4 -12 -9 3 -5 -4 -12 -15 -16 -23 -7 -17 -25 8 -25 15 0 15
2 2 10 -11 7 -12 10 -2 10 22 0 92 79 79 87 -17 11 -38 13 -32 3z m9 -25 c-9
-14 -18 -25 -21 -25 -5 0 5 18 20 38 17 22 18 13 1 -13z"/>
<path d="M9565 9041 c-8 -13 12 -24 28 -15 8 5 8 2 -2 -9 -11 -15 -11 -17 2
-17 16 0 17 16 4 38 -10 14 -24 16 -32 3z"/>
<path d="M9790 8750 c0 -5 5 -10 10 -10 6 0 10 5 10 10 0 6 -4 10 -10 10 -5 0
-10 -4 -10 -10z"/>
<path d="M3216 8665 c-4 -14 -11 -23 -16 -20 -6 3 -10 1 -10 -5 0 -7 7 -10 15
-6 27 10 16 -3 -16 -20 -24 -12 -29 -18 -19 -27 9 -9 17 -5 36 18 30 37 39 64
26 77 -6 6 -12 0 -16 -17z"/>
<path d="M3150 8550 c-13 -11 -18 -20 -11 -20 14 0 46 29 39 36 -3 2 -15 -5
-28 -16z"/>
<path d="M2980 8268 c0 -4 7 -8 15 -8 8 0 15 4 15 8 0 5 -7 9 -15 9 -8 0 -15
-4 -15 -9z"/>
<path d="M10130 8180 c0 -5 5 -10 11 -10 5 0 7 5 4 10 -3 6 -8 10 -11 10 -2 0
-4 -4 -4 -10z"/>
<path d="M2870 8030 c0 -5 5 -10 11 -10 5 0 7 5 4 10 -3 6 -8 10 -11 10 -2 0
-4 -4 -4 -10z"/>
<path d="M2710 7590 c0 -5 5 -10 10 -10 6 0 10 5 10 10 0 6 -4 10 -10 10 -5 0
-10 -4 -10 -10z"/>
<path d="M3667 9234 c3 -7 9 -14 14 -14 14 0 10 17 -5 23 -10 4 -13 1 -9 -9z"/>
<path d="M11596 2557 c3 -10 9 -15 12 -12 3 3 0 11 -7 18 -10 9 -11 8 -5 -6z"/>
<path d="M11563 2515 c0 -8 4 -12 9 -9 5 3 6 10 3 15 -9 13 -12 11 -12 -6z"/>
<path d="M11476 2415 c-3 -8 -1 -15 3 -15 5 0 11 7 15 15 3 8 1 15 -3 15 -5 0
-11 -7 -15 -15z"/>
<path d="M7835 210 c-3 -5 -1 -10 4 -10 6 0 11 5 11 10 0 6 -2 10 -4 10 -3 0
-8 -4 -11 -10z"/>
<path d="M7860 210 c0 -13 18 -22 24 -11 3 5 -1 11 -9 15 -8 3 -15 1 -15 -4z"/>
<path d="M12815 5230 c-3 -5 -1 -10 4 -10 6 0 11 5 11 10 0 6 -2 10 -4 10 -3
0 -8 -4 -11 -10z"/>
<path d="M12773 5025 c0 -8 4 -12 9 -9 4 3 8 9 8 15 0 5 -4 9 -8 9 -5 0 -9 -7
-9 -15z"/>
<path d="M12726 4841 c-4 -7 -5 -15 -2 -18 9 -9 19 4 14 18 -4 11 -6 11 -12 0z"/>
<path d="M870 3490 c0 -5 5 -10 11 -10 5 0 7 5 4 10 -3 6 -8 10 -11 10 -2 0
-4 -4 -4 -10z"/>
<path d="M970 3290 c0 -6 4 -10 9 -10 5 0 13 -9 16 -20 3 -11 10 -20 15 -20
12 0 -13 49 -27 55 -7 2 -13 0 -13 -5z"/>
<path d="M11975 3079 c-4 -13 -13 -27 -19 -31 -7 -5 -6 -8 4 -8 21 0 45 39 32
52 -7 7 -13 2 -17 -13z"/>
<path d="M1147 3012 c-6 -9 32 -57 39 -49 3 3 -3 14 -14 25 -11 11 -18 23 -14
26 3 3 3 6 -1 6 -3 0 -8 -3 -10 -8z"/>
<path d="M11870 2950 c-9 -16 -8 -18 5 -14 8 4 15 12 15 20 0 20 -7 17 -20 -6z"/>
<path d="M11836 2901 c-4 -6 -4 -11 0 -11 5 0 -7 -16 -26 -35 -19 -19 -29 -35
-22 -35 7 0 12 5 12 12 0 6 3 9 6 5 3 -3 2 -12 -2 -19 -11 -18 -14 -38 -5 -38
12 0 32 50 25 62 -4 6 -2 8 3 5 6 -4 19 3 28 14 17 18 17 21 3 35 -11 11 -18
12 -22 5z m14 -36 c-7 -9 -15 -13 -19 -10 -3 3 1 10 9 15 21 14 24 12 10 -5z"/>
<path d="M1225 2890 c-3 -5 -1 -10 4 -10 6 0 11 5 11 10 0 6 -2 10 -4 10 -3 0
-8 -4 -11 -10z"/>
<path d="M1356 2702 c-4 -7 -2 -12 3 -12 6 0 11 -7 11 -15 0 -8 3 -15 8 -15 4
0 18 -18 32 -40 14 -22 32 -40 40 -40 10 0 7 7 -10 20 -14 11 -21 20 -16 20 6
0 1 7 -10 15 -10 8 -15 15 -11 15 4 0 3 6 -3 13 -6 6 -17 21 -24 31 -9 13 -15
15 -20 8z"/>
<path d="M1470 2549 c0 -15 33 -53 48 -56 17 -4 15 5 -9 38 -21 29 -39 38 -39
18z"/>
<path d="M11405 2330 c-3 -5 -4 -14 0 -19 3 -5 -3 -12 -13 -15 -31 -10 -76
-63 -61 -71 7 -5 10 -4 6 2 -4 6 0 13 8 17 8 3 17 0 21 -6 5 -7 2 -8 -6 -3 -9
5 -11 4 -6 -3 4 -7 1 -13 -6 -13 -7 -1 -17 -2 -23 -4 -5 -1 -16 -3 -23 -3 -7
-1 -10 -6 -7 -12 3 -5 -5 -15 -19 -21 -14 -7 -22 -17 -19 -25 3 -8 9 -11 14
-8 5 3 6 10 3 16 -4 7 -2 8 5 4 17 -11 -6 -37 -25 -29 -16 6 -74 -43 -74 -62
0 -6 12 -11 28 -13 l27 -1 -24 13 -24 14 21 6 c12 4 22 14 22 22 0 17 16 19
26 2 4 -6 3 -9 -2 -6 -5 3 -17 -3 -26 -14 -13 -13 -14 -18 -5 -18 21 0 172
170 171 191 -1 16 1 17 14 7 12 -10 14 -10 8 0 -4 7 -2 12 5 12 10 0 10 3 2
11 -6 6 -9 18 -6 25 6 16 -3 19 -12 4z m-22 -65 c4 -8 1 -17 -5 -21 -7 -4 -8
-3 -4 4 4 7 2 12 -4 12 -6 0 -8 5 -5 10 8 14 12 13 18 -5z m-53 -70 c0 -2 -10
-10 -22 -16 -21 -11 -22 -11 -9 4 13 16 31 23 31 12z"/>
<path d="M1670 2306 c0 -7 11 -25 24 -39 13 -14 22 -28 19 -30 -2 -3 5 -8 16
-12 12 -3 19 -11 16 -16 -4 -5 1 -9 11 -9 12 0 14 3 6 13 -6 6 -12 17 -14 22
-1 6 -6 9 -10 8 -4 -2 -10 6 -13 17 -4 11 -15 25 -26 31 -11 5 -17 14 -14 20
4 5 1 9 -4 9 -6 0 -11 -6 -11 -14z"/>
<path d="M1886 2065 c10 -26 33 -49 41 -41 4 4 -5 19 -21 34 -22 22 -26 23
-20 7z"/>
<path d="M11122 2020 c-7 -11 -8 -20 -3 -20 9 0 24 30 18 36 -1 2 -8 -6 -15
-16z"/>
<path d="M11075 1980 c-4 -6 -3 -16 3 -22 6 -6 12 -6 17 2 4 6 3 16 -3 22 -6
6 -12 6 -17 -2z"/>
<path d="M1990 1976 c0 -2 8 -10 18 -17 15 -13 16 -12 3 4 -13 16 -21 21 -21
13z"/>
<path d="M10985 1870 c-3 -6 1 -7 9 -4 18 7 21 14 7 14 -6 0 -13 -4 -16 -10z"/>
<path d="M10890 1785 c-7 -8 -16 -12 -21 -9 -5 3 -10 -1 -11 -8 0 -7 -2 -17
-3 -23 -2 -5 -3 -16 -4 -23 0 -7 -5 -11 -10 -7 -5 3 -17 -5 -25 -17 -9 -12
-16 -18 -16 -13 0 5 -5 4 -11 -2 -8 -8 -8 -17 -1 -30 10 -17 11 -17 19 4 4 12
13 23 18 25 6 2 9 7 7 12 -2 5 4 6 12 3 15 -6 32 25 28 49 -1 6 4 16 11 22 10
8 13 6 13 -8 0 -10 -5 -16 -10 -13 -5 3 -6 1 -2 -6 9 -14 26 -5 26 15 0 10 5
12 13 8 9 -6 9 -5 0 8 -7 8 -10 18 -6 21 3 4 2 7 -4 7 -6 0 -16 -7 -23 -15z"/>
<path d="M2230 1746 c0 -2 7 -9 15 -16 13 -11 14 -10 9 4 -5 14 -24 23 -24 12z"/>
<path d="M10805 1720 c-10 -11 -15 -20 -11 -20 4 0 19 9 33 20 17 13 20 20 11
20 -8 0 -23 -9 -33 -20z"/>
<path d="M10755 1670 c-3 -5 -1 -10 4 -10 6 0 11 5 11 10 0 6 -2 10 -4 10 -3
0 -8 -4 -11 -10z"/>
<path d="M2374 1588 c1 -7 11 -15 21 -16 11 -3 15 0 10 7 -3 6 -10 9 -15 6 -4
-3 -11 0 -13 5 -3 6 -4 5 -3 -2z"/>
<path d="M10666 1588 c3 -4 9 -8 15 -8 5 0 9 4 9 8 0 5 -7 9 -15 9 -8 0 -12
-4 -9 -9z"/>
<path d="M10610 1549 c0 -5 5 -7 10 -4 6 3 10 8 10 11 0 2 -4 4 -10 4 -5 0
-10 -5 -10 -11z"/>
<path d="M10524 1459 c-10 -11 -24 -17 -31 -15 -7 3 -16 -2 -21 -10 -5 -9 -13
-16 -18 -16 -5 -1 -18 -13 -29 -28 -11 -15 -24 -28 -30 -29 -27 -4 -45 -13
-40 -21 5 -7 -24 -38 -32 -32 -1 1 -3 0 -3 -3 0 -3 0 -7 0 -10 0 -3 10 0 23 7
12 7 28 11 35 10 6 -2 12 5 12 15 0 15 -2 16 -10 3 -5 -8 -10 -10 -10 -4 0 6
8 18 17 25 9 8 14 9 11 4 -4 -6 -3 -17 3 -25 7 -12 9 -11 9 5 0 11 5 27 11 35
8 12 9 10 4 -8 -6 -22 -5 -23 15 -12 11 6 24 18 27 26 3 7 9 12 13 9 14 -9 21
27 8 44 -12 14 -11 14 5 2 11 -9 17 -10 17 -2 0 6 5 11 12 11 9 0 9 -3 0 -12
-7 -7 -12 -16 -12 -21 0 -5 14 5 30 21 34 35 35 38 16 45 -8 3 -22 -3 -32 -14z
m-46 -52 c14 4 14 3 2 -5 -8 -6 -18 -8 -24 -5 -5 4 -7 -1 -3 -10 3 -9 2 -19
-2 -21 -5 -3 -7 5 -6 17 4 36 6 43 11 30 3 -7 13 -9 22 -6z"/>
<path d="M2551 1467 c2 -1 13 -9 24 -17 19 -14 19 -14 6 3 -7 9 -18 17 -24 17
-6 0 -8 -1 -6 -3z"/>
<path d="M2683 1353 c-22 -8 -14 -26 8 -20 14 4 19 2 16 -7 -3 -8 8 -23 23
-35 27 -20 30 -20 40 -3 9 15 10 14 5 -5 -5 -17 -2 -23 9 -23 29 0 26 19 -6
45 -18 14 -36 25 -39 23 -4 -2 -15 4 -25 13 -11 9 -25 14 -31 12z m67 -37 c0
-3 -4 -8 -10 -11 -5 -3 -10 -1 -10 4 0 6 5 11 10 11 6 0 10 -2 10 -4z m13 -21
c-3 -9 -8 -14 -10 -11 -3 3 -2 9 2 15 9 16 15 13 8 -4z"/>
<path d="M10246 1265 c-3 -9 -10 -14 -15 -10 -5 3 -12 1 -16 -5 -3 -5 -1 -10
6 -10 7 0 4 -7 -7 -16 -18 -15 -18 -15 3 -4 23 10 49 48 40 56 -2 3 -7 -2 -11
-11z"/>
<path d="M2896 1203 c-4 -10 -4 -14 0 -10 4 4 14 1 22 -6 13 -10 14 -9 3 11
-14 27 -17 27 -25 5z"/>
<path d="M10067 1135 c3 -8 9 -12 14 -9 12 7 11 11 -5 17 -10 4 -13 1 -9 -8z"/>
<path d="M3095 1070 c-3 -5 -1 -10 4 -10 6 0 11 5 11 10 0 6 -2 10 -4 10 -3 0
-8 -4 -11 -10z"/>
<path d="M9813 981 c-13 -11 -18 -22 -13 -31 6 -9 10 -7 14 8 4 11 15 22 24
24 9 2 12 6 7 10 -6 3 -20 -2 -32 -11z"/>
<path d="M3354 926 c1 -8 5 -18 8 -22 4 -3 5 1 4 10 -1 8 -5 18 -8 22 -4 3 -5
-1 -4 -10z"/>
<path d="M9720 921 c-8 -6 -17 -8 -21 -5 -8 5 -26 -16 -31 -36 -5 -21 -61 -58
-74 -49 -6 5 -18 0 -28 -12 -9 -11 -24 -18 -32 -15 -10 4 -18 -4 -25 -21 -7
-20 -12 -24 -18 -14 -5 7 -11 9 -14 4 -3 -5 -2 -15 2 -22 6 -10 12 -9 25 4 9
9 16 14 16 10 0 -3 9 -1 20 5 11 6 18 15 15 21 -4 5 -1 9 4 9 6 0 11 -5 11
-11 0 -5 5 -7 10 -4 6 4 8 11 5 16 -5 8 16 14 38 10 4 0 7 6 7 15 0 8 5 12 10
9 6 -4 23 1 38 11 15 10 29 19 32 19 15 3 60 29 60 35 0 8 -22 30 -29 30 -4 0
-13 -4 -21 -9z m35 -10 c3 -5 0 -13 -6 -17 -8 -4 -9 -3 -5 4 8 14 4 15 -18 6
-9 -3 -16 -10 -16 -16 0 -5 6 -6 13 -2 6 4 9 4 5 0 -3 -4 -8 -6 -11 -4 -3 2
-14 -5 -25 -15 -20 -18 -20 -18 -17 0 1 10 8 17 15 15 8 -2 10 3 6 13 -3 9 -2
14 2 11 4 -2 14 -1 22 5 19 11 27 11 35 0z"/>
<path d="M3435 870 c3 -5 11 -10 16 -10 6 0 7 5 4 10 -3 6 -11 10 -16 10 -6 0
-7 -4 -4 -10z"/>
<path d="M9464 789 c-10 -11 -24 -17 -31 -15 -7 3 -14 0 -15 -7 0 -7 -2 -16
-3 -22 -2 -5 -3 -16 -4 -23 0 -7 -5 -10 -11 -7 -5 3 -10 0 -10 -7 0 -9 -3 -9
-10 2 -5 8 -10 20 -10 25 0 6 4 5 8 -2 4 -7 13 -9 19 -5 8 5 9 13 3 22 -7 11
-10 12 -10 2 0 -7 -4 -11 -9 -8 -5 3 -14 -1 -21 -9 -8 -10 -9 -15 -2 -15 6 0
9 -9 7 -19 -3 -18 -1 -19 23 -9 15 7 32 18 38 25 7 8 18 12 25 11 10 -2 13 6
12 25 -2 24 6 32 30 28 10 -1 9 17 -2 23 -4 3 -17 -4 -27 -15z m-4 -41 c0 -4
-6 -8 -14 -8 -8 0 -17 4 -20 8 -2 4 4 8 15 8 10 0 19 -4 19 -8z"/>
<path d="M3653 750 c0 -28 2 -29 16 -15 14 13 14 17 0 30 -14 14 -16 13 -16
-15z"/>
<path d="M3750 706 c6 -6 5 -15 -3 -25 -9 -11 -9 -13 0 -8 7 4 16 0 21 -9 6
-10 12 -13 16 -6 3 6 2 13 -4 17 -5 3 -10 11 -10 16 0 6 4 7 10 4 5 -3 7 0 5
7 -3 8 -14 14 -25 14 -13 0 -16 -4 -10 -10z"/>
<path d="M9287 688 c2 -5 -1 -8 -8 -8 -7 0 -9 -3 -6 -7 4 -3 2 -12 -4 -20 -10
-11 -14 -10 -26 7 -19 27 -36 26 -28 -1 6 -19 4 -21 -18 -15 -19 4 -29 1 -36
-11 -6 -10 -11 -12 -11 -5 0 7 -8 4 -21 -9 -13 -13 -27 -18 -40 -14 -12 4 -21
1 -25 -9 -3 -9 -10 -13 -15 -10 -5 3 -4 -6 2 -19 10 -23 13 -24 38 -11 14 8
32 14 39 14 6 0 12 4 12 9 0 10 -19 9 -36 -2 -7 -4 -17 0 -24 8 -9 10 -9 15
-1 15 6 0 11 -5 11 -11 0 -8 5 -8 15 1 8 7 15 9 15 4 0 -5 6 -2 13 6 14 17 50
24 40 7 -4 -7 2 -8 18 -3 13 4 30 8 36 8 9 1 10 5 2 14 -7 8 -6 14 2 20 8 4 9
3 5 -5 -5 -8 -1 -11 16 -9 36 6 70 28 64 43 -3 8 0 16 7 18 7 2 0 4 -15 3 -14
0 -24 -4 -21 -8z m23 -11 c0 -2 -10 -12 -22 -23 l-23 -19 19 23 c18 21 26 27
26 19z m-100 -52 c0 -12 -19 -12 -23 0 -4 9 -1 12 9 8 7 -3 14 -7 14 -8z"/>
<path d="M3913 609 c-1 -11 3 -19 9 -17 7 3 20 -4 31 -15 10 -10 25 -16 33
-13 7 3 18 -3 23 -12 7 -11 10 -12 11 -4 0 10 3 10 15 -1 8 -9 24 -13 35 -10
16 4 18 8 9 17 -8 8 -13 8 -16 -1 -5 -13 -10 -10 -54 30 -16 14 -19 14 -19 2
0 -8 -4 -15 -9 -15 -5 0 -8 8 -7 18 0 9 -6 17 -14 17 -8 0 -19 6 -23 13 -12
18 -23 15 -24 -9z"/>
<path d="M4010 590 c0 -5 5 -10 10 -10 6 0 10 5 10 10 0 6 -4 10 -10 10 -5 0
-10 -4 -10 -10z"/>
<path d="M9145 590 c3 -5 10 -10 16 -10 5 0 9 5 9 10 0 6 -7 10 -16 10 -8 0
-12 -4 -9 -10z"/>
<path d="M8963 545 c-7 -8 -9 -16 -4 -19 5 -3 12 1 15 10 8 22 4 25 -11 9z"/>
<path d="M4157 542 c9 -6 7 -11 -7 -20 -12 -7 -20 -8 -20 -2 0 5 -4 10 -10 10
-5 0 -10 -5 -10 -10 0 -12 49 -34 68 -31 6 1 12 -3 12 -9 0 -7 6 -10 12 -8 7
3 19 -1 26 -8 7 -7 19 -11 27 -8 8 4 15 1 15 -6 0 -10 3 -10 15 0 8 7 15 17
15 22 0 7 -5 6 -13 -1 -8 -6 -17 -7 -21 -3 -7 7 -11 8 -37 11 -6 0 -8 10 -4
23 6 16 4 20 -8 15 -8 -3 -23 3 -33 14 -9 10 -22 19 -28 19 -7 0 -7 -3 1 -8z
m58 -35 c4 5 5 3 1 -4 -8 -15 -32 -7 -41 15 -5 14 -4 14 13 -1 10 -9 22 -14
27 -10z m-50 3 c3 -5 1 -10 -4 -10 -6 0 -11 5 -11 10 0 6 2 10 4 10 3 0 8 -4
11 -10z"/>
<path d="M8841 506 c-9 -10 -8 -15 3 -19 8 -3 17 1 20 8 7 20 -9 28 -23 11z"/>
<path d="M8910 509 c0 -5 5 -7 10 -4 6 3 10 8 10 11 0 2 -4 4 -10 4 -5 0 -10
-5 -10 -11z"/>
<path d="M8796 491 c-3 -5 2 -15 12 -22 15 -12 16 -12 5 2 -7 9 -10 19 -6 22
3 4 4 7 0 7 -3 0 -8 -4 -11 -9z"/>
<path d="M4301 454 c-10 -22 -9 -25 2 -21 8 3 20 0 26 -6 8 -8 11 -8 11 1 0 6
-8 16 -17 21 -16 9 -17 10 -1 11 9 0 20 -9 23 -20 6 -19 37 -42 63 -46 6 -1
10 2 6 7 -3 5 0 9 5 9 6 0 11 -7 11 -15 0 -20 7 -19 37 5 19 15 21 20 9 20 -9
0 -16 5 -16 12 0 6 -6 4 -13 -6 -12 -16 -14 -16 -31 3 -10 11 -23 18 -28 15
-6 -4 -23 3 -39 15 -35 26 -33 26 -48 -5z m102 -29 c4 -8 1 -17 -5 -21 -7 -4
-8 -3 -4 4 4 7 2 12 -4 12 -6 0 -8 5 -5 10 8 14 12 13 18 -5z"/>
<path d="M8730 470 c0 -5 -6 -9 -12 -7 -7 1 -13 -5 -13 -13 0 -8 6 -14 13 -12
8 1 11 -2 6 -9 -5 -9 -12 -6 -25 9 -14 18 -19 19 -29 7 -6 -7 -18 -11 -26 -8
-20 7 -17 -8 7 -37 20 -24 20 -24 16 -3 -3 15 -1 20 9 16 8 -3 11 -9 8 -15 -3
-5 8 -2 25 6 17 9 34 16 38 15 4 0 9 5 11 13 3 11 2 11 -6 0 -7 -11 -10 -11
-15 2 -4 9 -4 23 -1 31 4 8 3 15 0 15 -3 0 -6 -4 -6 -10z m-37 -44 c4 -10 1
-13 -9 -9 -15 6 -19 23 -5 23 5 0 11 -7 14 -14z"/>
<path d="M4466 384 c-5 -12 -1 -14 15 -9 15 5 19 4 15 -4 -5 -7 2 -11 16 -11
13 0 30 -6 36 -12 10 -10 15 -10 22 2 5 8 9 20 9 25 0 6 -3 4 -6 -2 -2 -7 -9
-13 -14 -13 -6 0 -8 4 -5 9 3 4 -6 7 -20 5 -15 -1 -28 4 -31 12 -7 19 -29 18
-37 -2z"/>
<path d="M4619 372 c0 -4 -2 -17 -5 -30 -2 -13 0 -21 4 -18 4 2 14 1 22 -4 9
-5 19 -5 27 2 10 8 12 7 8 -4 -3 -8 0 -15 7 -16 7 0 44 -10 83 -21 52 -15 72
-17 77 -8 5 8 8 5 8 -7 0 -20 0 -20 15 0 15 19 15 19 8 -1 -6 -19 -6 -19 14
-2 16 14 20 14 20 2 0 -8 -4 -12 -9 -9 -4 3 -8 0 -8 -5 0 -10 20 -15 48 -12 6
1 12 -2 12 -8 0 -5 8 -8 18 -6 9 1 22 -2 29 -7 7 -5 18 -6 25 -2 7 5 16 9 20
9 12 0 21 15 9 15 -7 0 -10 4 -7 8 3 5 -1 9 -9 9 -8 0 -12 -4 -9 -9 3 -4 0 -8
-6 -8 -6 0 -8 -5 -4 -12 4 -7 3 -8 -5 -4 -6 4 -9 11 -6 16 3 5 -7 7 -22 6 -38
-5 -64 10 -56 31 4 9 2 14 -3 10 -6 -3 -16 -2 -24 3 -9 5 -19 5 -27 -1 -14
-12 -57 7 -48 21 3 5 -8 7 -25 5 -16 -2 -30 1 -30 6 0 6 -8 8 -19 4 -10 -3
-24 1 -31 10 -7 8 -17 12 -23 8 -6 -4 -23 -7 -38 -8 -19 -1 -25 3 -22 13 4 10
8 11 13 2 5 -7 10 -8 13 -3 4 6 -5 15 -18 21 -14 7 -25 8 -26 4z m127 -58 c7
3 16 1 20 -5 11 -19 -4 -21 -34 -5 -16 8 -33 12 -36 8 -4 -3 -4 1 -1 11 6 15
9 15 22 1 9 -8 22 -13 29 -10z m77 -23 c4 -1 7 -6 7 -12 0 -8 -4 -9 -13 0 -8
6 -16 8 -19 5 -3 -3 -9 -1 -12 4 -3 6 2 9 11 7 10 -2 21 -4 26 -4z"/>
<path d="M8421 365 c1 -5 -1 -17 -5 -27 -8 -17 -51 -18 -88 -3 -11 4 -18 3
-18 -4 0 -6 -6 -8 -14 -5 -8 3 -17 0 -22 -7 -5 -9 -2 -10 9 -6 24 9 21 0 -3
-13 -11 -6 -26 -7 -33 -3 -33 21 -101 -2 -112 -38 -4 -11 -9 -18 -12 -15 -3 3
-15 0 -27 -6 -36 -20 -50 -19 -31 3 10 10 21 16 25 14 10 -6 40 5 40 14 0 10
-33 10 -45 0 -6 -4 -23 -6 -39 -5 -17 2 -30 -2 -33 -11 -3 -8 -13 -11 -23 -8
-10 3 -25 -2 -34 -10 -18 -19 -19 -25 -7 -44 7 -10 13 -11 31 -1 12 6 24 9 27
7 3 -3 23 1 45 9 21 7 42 13 46 13 4 -1 10 0 15 1 4 1 10 3 15 4 8 2 36 10 95
28 20 6 37 16 37 22 0 6 5 4 11 -4 9 -13 10 -12 5 3 -3 9 -1 17 4 17 6 0 10
-4 10 -10 0 -5 6 -10 14 -10 17 0 31 18 21 28 -3 3 -10 0 -15 -8 -6 -8 -10
-10 -10 -5 0 28 47 42 67 20 5 -4 -2 -4 -14 -1 -18 6 -22 4 -17 -8 4 -12 11
-13 24 -6 9 5 21 6 25 2 5 -4 5 2 1 12 -5 16 -4 17 9 6 12 -10 15 -10 15 1 0
10 2 11 8 2 5 -8 11 -8 24 1 15 11 15 14 -3 36 -11 14 -19 21 -18 15z m-224
-71 c-3 -4 -2 -14 3 -24 8 -14 5 -17 -13 -16 -12 1 -31 -5 -42 -13 -19 -16
-20 -15 -2 5 9 11 14 24 10 29 -5 4 -3 5 3 2 7 -4 17 0 24 8 7 8 15 15 18 15
3 0 2 -3 -1 -6z m33 -6 c0 7 4 10 10 7 6 -4 5 -11 -3 -19 -12 -14 -27 -4 -27
19 0 6 5 3 10 -5 7 -11 10 -11 10 -2z m-180 -43 c-6 -8 -9 -19 -5 -25 3 -5 1
-10 -4 -10 -15 0 -14 23 1 38 17 17 23 15 8 -3z m-37 -13 c3 7 5 4 4 -7 -1
-12 -8 -21 -18 -21 -11 0 -15 6 -11 16 4 12 2 13 -9 3 -7 -7 -17 -13 -23 -13
-5 0 -1 6 10 14 12 9 23 11 30 5 8 -7 14 -5 17 3z"/>
<path d="M8175 270 c-3 -5 -1 -10 4 -10 6 0 11 5 11 10 0 6 -2 10 -4 10 -3 0
-8 -4 -11 -10z"/>
<path d="M5062 224 c-7 -8 -19 -11 -25 -8 -7 4 -8 3 -4 -1 8 -10 28 -15 70
-17 15 0 27 -6 27 -11 0 -6 3 -8 6 -5 3 4 20 2 37 -4 18 -5 46 -12 62 -14 38
-6 70 -12 70 -14 0 -1 8 -3 17 -5 16 -3 28 14 28 40 0 12 -31 13 -47 1 -9 -5
-13 -4 -13 5 0 8 -6 5 -14 -7 -8 -10 -18 -16 -22 -11 -4 4 -2 7 5 7 7 0 9 5 5
11 -4 8 -9 7 -14 -2 -7 -10 -12 -10 -26 2 -19 16 -77 22 -68 7 4 -6 -3 -5 -15
1 -12 7 -27 9 -33 5 -7 -4 -8 -3 -4 5 4 6 16 9 27 6 14 -5 17 -2 13 8 -6 17
-36 17 -47 0 -4 -7 -13 -13 -20 -13 -8 0 -8 3 2 9 7 5 9 11 5 14 -5 3 -15 -1
-22 -9z m163 -53 c-6 -5 -25 10 -25 20 0 5 6 4 14 -3 8 -7 12 -15 11 -17z m90
9 c-9 -14 8 -12 25 3 12 10 12 9 1 -5 -7 -10 -20 -18 -27 -18 -15 0 -19 12 -7
23 10 10 15 8 8 -3z"/>
<path d="M5155 230 c-3 -5 -1 -10 4 -10 6 0 11 5 11 10 0 6 -2 10 -4 10 -3 0
-8 -4 -11 -10z"/>
<path d="M7705 192 c-8 -8 15 -43 25 -37 13 8 8 42 -7 42 -7 0 -15 -2 -18 -5z"/>
<path d="M5440 160 c8 -5 9 -9 1 -14 -6 -4 -11 -12 -11 -18 0 -6 7 -5 17 3 11
10 14 10 9 2 -7 -13 7 -17 62 -16 12 0 22 -4 22 -10 0 -6 3 -7 6 -4 4 4 -1 18
-10 33 -16 24 -19 24 -35 10 -23 -21 -34 -20 -29 2 4 12 -2 17 -20 19 -16 0
-20 -2 -12 -7z m83 -23 c3 -8 -1 -14 -8 -14 -7 0 -11 6 -8 14 3 7 6 13 8 13 2
0 5 -6 8 -13z"/>
<path d="M7557 153 c-9 -10 -17 -12 -17 -6 0 15 -33 11 -43 -4 -4 -7 -13 -13
-20 -13 -8 0 -8 3 2 9 9 6 10 11 2 15 -6 4 -11 2 -11 -4 0 -7 -7 -9 -16 -6 -8
3 -12 2 -9 -4 3 -6 1 -10 -6 -10 -9 0 -9 -3 0 -14 10 -12 7 -14 -16 -11 -15 1
-36 -1 -45 -6 -14 -7 -16 -5 -13 11 2 12 0 18 -6 15 -5 -4 -7 -10 -4 -15 3 -4
-2 -10 -10 -14 -9 -3 -20 4 -28 19 l-12 25 -28 -23 c-34 -27 -29 -61 6 -48 12
4 29 7 37 6 8 0 18 4 22 10 5 7 8 6 8 -1 0 -8 16 -8 57 2 31 7 60 11 64 9 4
-3 9 5 12 16 4 14 11 20 21 16 18 -7 80 16 69 26 -3 4 -1 7 5 7 5 0 12 -6 15
-12 2 -7 8 -9 13 -5 5 4 2 12 -6 17 -20 13 -23 13 -43 -7z m-248 -51 c8 -15 6
-18 -14 -17 -13 0 -27 4 -31 8 -5 4 0 5 9 1 10 -3 17 -3 16 2 -5 28 6 31 20 6z"/>
<path d="M5561 146 c-12 -14 -5 -46 10 -46 13 0 11 14 -3 29 -11 10 -10 11 5
6 9 -4 17 -13 17 -21 0 -8 3 -14 8 -15 4 0 16 -2 26 -4 23 -4 76 21 76 36 0 6
-4 8 -9 4 -5 -3 -21 0 -35 6 -20 9 -29 9 -40 0 -16 -14 -40 -6 -31 10 9 14
-11 11 -24 -5z m99 -17 c11 -8 9 -9 -10 -3 -23 6 -24 6 -10 -12 14 -17 14 -18
-2 -6 -13 10 -17 10 -21 0 -4 -9 -6 -7 -6 4 -1 14 11 25 29 27 3 0 12 -4 20
-10z"/>
<path d="M5704 121 c-4 -9 -7 -19 -6 -23 1 -4 -5 -5 -13 -2 -8 4 -15 2 -15 -4
0 -6 11 -9 25 -7 14 1 25 -2 25 -8 0 -6 3 -7 6 -4 4 4 1 13 -6 22 -7 9 -10 18
-6 22 3 3 6 1 6 -5 0 -20 16 -13 17 6 2 23 -23 25 -33 3z"/>
<path d="M5744 98 c1 -19 6 -23 34 -21 17 1 32 -1 32 -5 0 -4 16 -7 36 -8 l36
-1 -24 19 c-12 10 -16 16 -7 12 10 -3 20 0 24 5 3 6 11 8 17 5 7 -4 8 -2 4 4
-8 13 -33 12 -54 -2 -7 -4 -16 -5 -19 -2 -4 3 -16 -2 -27 -11 -12 -10 -15 -11
-8 -3 20 23 14 35 -8 15 -11 -10 -23 -15 -27 -12 -3 4 -1 7 6 7 7 0 9 5 6 10
-11 18 -22 11 -21 -12z"/>
<path d="M5915 110 c3 -5 1 -11 -4 -11 -6 -1 -15 -3 -21 -4 -5 -1 -13 -3 -16
-4 -3 0 1 -8 10 -16 17 -17 142 -33 132 -17 -3 6 6 19 20 29 l26 19 -25 0
c-16 0 -23 -4 -20 -13 3 -7 -2 -13 -12 -13 -9 0 -13 -4 -10 -10 3 -5 2 -10 -3
-10 -14 0 -24 29 -15 43 4 8 1 7 -9 -1 -12 -10 -18 -9 -28 3 -14 17 -35 21
-25 5z m28 -25 c7 -17 -9 -30 -18 -15 -4 6 -12 7 -18 3 -7 -4 -6 0 2 10 17 21
27 22 34 2z"/>
<path d="M7157 107 c-3 -9 1 -18 9 -21 16 -6 18 2 5 22 -7 11 -9 11 -14 -1z"/>
<path d="M7184 107 c3 -10 6 -21 6 -23 0 -2 6 -4 14 -4 8 0 16 -6 19 -12 3 -9
8 -10 15 -3 7 7 6 18 -4 35 -9 14 -13 17 -10 8 4 -13 1 -15 -12 -11 -9 4 -21
11 -25 17 -5 7 -6 4 -3 -7z"/>
<path d="M7027 104 c-2 -2 -2 -18 1 -35 3 -21 9 -29 19 -25 8 3 23 6 34 6 11
0 16 5 14 13 -6 13 -61 48 -68 41z m48 -34 c3 -5 1 -10 -4 -10 -6 0 -11 5 -11
10 0 6 2 10 4 10 3 0 8 -4 11 -10z"/>
<path d="M6115 90 c-3 -6 -18 -8 -32 -5 -32 5 -64 -11 -57 -29 6 -15 41 -13
57 3 6 6 -3 8 -24 6 -25 -4 -29 -2 -14 4 29 12 50 6 47 -13 -2 -10 4 -16 18
-16 11 0 20 5 20 11 0 5 -4 8 -8 5 -5 -3 -9 1 -9 9 0 11 4 12 14 4 7 -6 13
-19 13 -28 0 -13 2 -14 9 -1 6 8 7 19 4 25 -2 5 5 -1 16 -15 14 -17 21 -20 21
-10 0 22 -12 36 -32 37 -35 1 -39 3 -33 13 3 6 4 10 1 10 -3 0 -8 -5 -11 -10z"/>
<path d="M6799 70 c-29 -28 -59 -40 -59 -22 0 5 -6 17 -14 27 -14 19 -15 19
-27 -8 l-13 -28 -12 22 c-9 18 -21 22 -68 24 -32 1 -64 -4 -74 -11 -11 -8 -21
-9 -29 -3 -7 7 -13 6 -18 -1 -4 -7 -13 -7 -28 1 -12 7 -19 8 -15 4 4 -5 3 -14
-3 -21 -15 -19 -1 -38 17 -23 11 9 14 9 14 0 0 -7 5 -9 11 -5 8 5 6 10 -5 16
-9 5 -21 6 -28 2 -7 -4 -8 -3 -4 4 10 17 23 15 46 -8 11 -11 20 -15 20 -9 0 8
5 8 15 -1 18 -15 20 1 3 19 -11 10 -9 11 5 5 10 -3 17 -3 16 2 -4 21 2 26 16
14 12 -10 15 -10 15 0 0 10 3 10 14 1 11 -9 15 -9 19 1 4 10 6 10 6 1 1 -14
27 -18 34 -5 2 4 2 2 1 -5 -2 -6 2 -14 9 -16 7 -2 0 -4 -15 -3 -16 0 -28 4
-28 7 0 11 -63 4 -67 -8 -5 -15 14 -26 22 -13 3 5 11 10 16 10 6 0 7 -6 3 -13
-5 -8 -2 -8 9 2 14 11 17 11 17 0 0 -10 3 -10 12 -1 8 8 15 9 25 1 7 -7 13 -7
13 -2 0 5 7 10 15 10 8 0 15 -3 15 -7 0 -4 7 -7 15 -7 8 0 15 3 15 7 0 10 54
6 63 -5 5 -6 7 -4 4 5 -6 21 13 44 38 48 17 2 18 1 5 -8 -12 -9 -10 -10 10 -4
29 7 26 2 -9 -16 -18 -9 -22 -9 -16 0 5 8 3 11 -4 9 -7 -3 -12 -9 -12 -14 1
-13 114 -13 124 0 4 6 10 5 16 -4 5 -8 11 -9 15 -3 3 6 0 13 -6 15 -7 3 -5 6
6 6 11 1 16 4 12 8 -12 12 -35 11 -40 -2 -2 -7 -13 -12 -23 -10 -10 2 -22 4
-26 4 -5 1 -5 7 -1 14 4 6 3 9 -1 4 -5 -4 -19 0 -32 8 -22 15 -25 14 -54 -15z
m-291 -25 c-3 -3 -9 2 -12 12 -6 14 -5 15 5 6 7 -7 10 -15 7 -18z m222 9 c0
-8 -19 -13 -24 -6 -3 5 1 9 9 9 8 0 15 -2 15 -3z"/>
<path d="M6905 83 c-8 -23 -6 -29 5 -13 9 13 10 13 10 0 0 -13 1 -13 10 0 13
21 12 27 -5 27 -8 0 -17 -7 -20 -14z"/>
<path d="M6950 90 c0 -5 3 -9 8 -9 23 4 33 -3 28 -19 -4 -12 -1 -18 12 -18 10
0 19 8 19 18 1 10 -2 16 -6 13 -5 -2 -14 2 -21 10 -14 17 -40 20 -40 5z"/>
<path d="M6286 77 c3 -10 9 -15 12 -12 3 3 0 11 -7 18 -10 9 -11 8 -5 -6z"/>
<path d="M6190 70 c0 -5 5 -10 11 -10 5 0 7 5 4 10 -3 6 -8 10 -11 10 -2 0 -4
-4 -4 -10z"/>
<path d="M6350 70 c0 -5 5 -10 10 -10 6 0 10 5 10 10 0 6 -4 10 -10 10 -5 0
-10 -4 -10 -10z"/>
</g>
</svg>
